<svg xmlns="http://www.w3.org/2000/svg" id="svg0.5492455287022642" viewBox="0 0 1024 1024"><path d="M0 0 C337.92 0 675.84 0 1024 0 C1024 337.92 1024 675.84 1024 1024 C686.08 1024 348.16 1024 0 1024 C0 686.08 0 348.16 0 0 Z " transform="translate(0,0)" style="fill: #232223;"/><path d="M0 0 C1.96606445 0.81201172 1.96606445 0.81201172 2.97998047 2.47583008 C3.22417725 3.19391846 3.46837402 3.91200684 3.7199707 4.65185547 C4.01129883 5.45896973 4.30262695 6.26608398 4.6027832 7.09765625 C5.06104492 8.41032471 5.06104492 8.41032471 5.52856445 9.74951172 C13.00872845 29.74096924 25.4697437 45.41360443 39.96606445 60.81201172 C40.66086914 61.57255859 41.35567383 62.33310547 42.0715332 63.11669922 C53.29367257 74.96832029 67.31264947 83.98485334 81.08422852 92.57373047 C83.03648044 93.85834668 84.85886485 95.25941465 86.70825195 96.68701172 C89.60796224 99.09300629 89.60796224 99.09300629 91.97045898 98.51049805 C92.62900879 98.27999756 93.28755859 98.04949707 93.96606445 97.81201172 C95.01793945 97.46525391 96.06981445 97.11849609 97.15356445 96.76123047 C97.75982666 96.55908936 98.36608887 96.35694824 98.99072266 96.14868164 C112.32443898 91.76673235 126.82065483 87.64404212 140.96606445 88.81201172 C140.96606445 89.80201172 140.96606445 90.79201172 140.96606445 91.81201172 C144.78171266 89.72280997 147.49802971 87.41575426 150.46606445 84.24951172 C167.91551799 66.54307065 190.97300688 53.93123755 214.96606445 47.81201172 C216.94567612 47.25107982 218.92487673 46.68869417 220.90356445 46.12451172 C228.24500646 44.04191565 235.32717831 43.67461208 242.90356445 43.74951172 C243.77819336 43.75402344 244.65282227 43.75853516 245.55395508 43.76318359 C247.69135493 43.77486337 249.82871908 43.79279483 251.96606445 43.81201172 C251.60544922 44.28799805 251.24483398 44.76398438 250.87329102 45.25439453 C247.06893924 50.29828397 243.36289873 55.40329892 239.71606445 60.56201172 C238.92329102 61.67382812 238.92329102 61.67382812 238.11450195 62.80810547 C237.60661133 63.52611328 237.0987207 64.24412109 236.57543945 64.98388672 C236.12136719 65.62422852 235.66729492 66.26457031 235.19946289 66.92431641 C233.95576633 68.82777282 232.94142109 70.76000703 231.96606445 72.81201172 C232.80266602 72.35310547 233.63926758 71.89419922 234.5012207 71.42138672 C249.39932614 63.56812184 263.79526079 60.63338918 280.65356445 60.62451172 C281.88913086 60.61226562 283.12469727 60.60001953 284.39770508 60.58740234 C285.57913086 60.58546875 286.76055664 60.58353516 287.9777832 60.58154297 C289.59366333 60.57537964 289.59366333 60.57537964 291.2421875 60.5690918 C293.96606445 60.81201172 293.96606445 60.81201172 296.96606445 62.81201172 C296.03793945 63.63701172 295.10981445 64.46201172 294.15356445 65.31201172 C285.27329586 74.19228031 278.64472221 85.69690135 272.96606445 96.81201172 C274.002229 96.49369385 274.002229 96.49369385 275.05932617 96.16894531 C283.49282544 93.79532895 291.36048559 93.34601771 300.09106445 93.43701172 C300.76805389 93.44000275 301.44504333 93.44299377 302.14254761 93.44607544 C313.96415073 93.50726765 325.36588231 94.46926993 336.79907227 97.58374023 C341.02600291 97.8884103 342.61795788 96.61557963 346.0715332 94.21826172 C346.63624832 93.83391968 347.20096344 93.44957764 347.78279114 93.05358887 C349.58462439 91.8223038 351.36903657 90.56821112 353.15356445 89.31201172 C354.33278243 88.49788624 355.51311333 87.68537031 356.69458008 86.87451172 C358.44319873 85.67413533 360.19063305 84.47235789 361.9329071 83.26278687 C365.55620622 80.75166613 369.22980391 78.34915613 372.96606445 76.00732422 C376.79833907 73.59564322 380.32140196 71.10780952 383.77856445 68.18701172 C384.68735352 67.42259766 385.59614258 66.65818359 386.5324707 65.87060547 C387.33555664 65.19126953 388.13864258 64.51193359 388.96606445 63.81201172 C390.0491084 62.95747815 391.13238181 62.10323518 392.21606445 61.24951172 C395.13216254 58.66478841 397.60988068 55.92439258 400.1262207 52.95654297 C401.33176829 51.55135056 402.56831429 50.17204268 403.8371582 48.82373047 C415.63739642 36.2162325 425.47036241 20.00193427 431.0793457 3.66748047 C431.96606445 1.81201172 431.96606445 1.81201172 434.96606445 -0.18798828 C458.05666305 18.46069866 474.45665166 41.61096119 488.34106445 67.68701172 C488.73382568 68.42290527 489.12658691 69.15879883 489.53125 69.91699219 C504.5208556 98.69524627 511.76907537 130.87674023 515.96606445 162.81201172 C516.07208984 163.6104248 516.17811523 164.40883789 516.28735352 165.23144531 C517.211328 173.14815143 517.20961905 181.10215334 517.21606445 189.06201172 C517.21707657 190.19133621 517.21707657 190.19133621 517.21810913 191.34347534 C517.20008556 204.0618853 516.29583901 216.29032583 513.96606445 228.81201172 C513.79445801 229.7886377 513.62285156 230.76526367 513.44604492 231.77148438 C509.83871153 252.18080314 505.29286104 273.15841855 495.96606445 291.81201172 C495.38908089 296.43451225 496.26316904 298.85438774 499.06445312 302.55395508 C499.50635986 303.11348877 499.9482666 303.67302246 500.40356445 304.24951172 C501.32983878 305.48581113 502.25159383 306.72550727 503.16918945 307.96826172 C503.63776367 308.60248047 504.10633789 309.23669922 504.58911133 309.89013672 C510.20787739 317.73249957 514.86824905 326.24674176 519.02856445 334.93701172 C519.32786865 335.5524585 519.62717285 336.16790527 519.93554688 336.80200195 C521.53866179 340.27645723 522.30553179 342.98397582 521.96606445 346.81201172 C520.64606445 347.14201172 519.32606445 347.47201172 517.96606445 347.81201172 C518.46235352 348.20130859 518.95864258 348.59060547 519.4699707 348.99169922 C525.11343066 353.63925448 529.03224825 358.68235987 532.96606445 364.81201172 C533.45719727 365.51326172 533.94833008 366.21451172 534.4543457 366.93701172 C543.44247579 380.50400052 550.93234364 400.38526559 549.96606445 416.81201172 C546.23556042 413.20898894 542.91353411 409.45537156 539.71606445 405.37451172 C539.24007812 404.76905518 538.7640918 404.16359863 538.27368164 403.53979492 C535.01706189 399.33106469 532.04808052 395.00295207 529.21606445 390.49951172 C522.53392567 379.87841268 514.56762282 370.8902229 505.96606445 361.81201172 C505.32540039 361.12880859 504.68473633 360.44560547 504.0246582 359.74169922 C499.07904017 354.61732391 493.56672471 350.19697032 487.96606445 345.81201172 C487.17014893 345.18552734 487.17014893 345.18552734 486.3581543 344.54638672 C471.9559678 333.3056558 456.00882006 324.47255082 439.96606445 315.81201172 C439.96606445 315.48201172 439.96606445 315.15201172 439.96606445 314.81201172 C446.01508085 315.40434864 451.85331299 316.27948417 457.77856445 317.62451172 C458.56336182 317.80264404 459.34815918 317.98077637 460.15673828 318.16430664 C475.0431747 321.62971387 489.24622392 327.2455885 501.96606445 335.81201172 C501.96606445 332.85773065 497.63982263 329.01064094 495.90356445 326.74951172 C495.34217773 326.01023437 494.78079102 325.27095703 494.20239258 324.50927734 C488.08695348 316.52076661 481.7966161 309.1625622 473.96606445 302.81201172 C473.09208008 302.10044922 472.2180957 301.38888672 471.31762695 300.65576172 C442.13009461 277.80654069 406.8427713 272.54609121 370.96606445 269.81201172 C378.36790449 262.41017168 395.49413914 263.39501934 405.09106445 263.37451172 C415.94785801 263.45575451 427.40561171 263.60592499 437.5637207 267.91357422 C440.43488339 268.98734238 441.92942299 269.38024553 444.96606445 268.81201172 C447.46614311 267.13095132 449.56606982 265.10141591 451.71606445 262.99951172 C452.33513672 262.40783203 452.95420898 261.81615234 453.59204102 261.20654297 C458.85551966 256.09391963 463.51113714 250.64141751 467.96606445 244.81201172 C468.81733534 243.73652959 469.67026863 242.6623617 470.5246582 241.58935547 C476.45493574 234.08858746 481.75025303 226.41929337 485.96606445 217.81201172 C485.46719727 218.22451172 484.96833008 218.63701172 484.4543457 219.06201172 C470.50854897 230.27873872 452.65566919 240.86371681 434.96606445 244.81201172 C434.30606445 244.48201172 433.64606445 244.15201172 432.96606445 243.81201172 C433.51133789 243.22935547 434.05661133 242.64669922 434.6184082 242.04638672 C453.19786836 221.84717876 464.84512918 199.52154744 470.96606445 172.81201172 C471.21485352 171.72919922 471.46364258 170.64638672 471.7199707 169.53076172 C473.39411647 161.00783782 473.15042975 152.45669573 472.96606445 143.81201172 C472.61415039 144.73240234 472.26223633 145.65279297 471.8996582 146.60107422 C461.61343953 173.14786622 447.15406056 194.1188172 423.96606445 210.81201172 C422.93610352 211.56224609 421.90614258 212.31248047 420.8449707 213.08544922 C413.82728362 217.90356274 413.82728362 217.90356274 410.13891602 217.51147461 C407.09121795 216.83960211 404.54348238 215.93841033 401.70043945 214.66748047 C400.24057617 214.02262695 400.24057617 214.02262695 398.7512207 213.36474609 C397.74961914 212.91421875 396.74801758 212.46369141 395.71606445 211.99951172 C384.05737145 206.81025032 372.5726984 202.24377445 360.34106445 198.56201172 C359.14610352 198.19849609 357.95114258 197.83498047 356.7199707 197.46044922 C353.80315922 196.57373853 350.88520546 195.6910167 347.96606445 194.81201172 C347.96606445 190.81201172 347.96606445 190.81201172 349.7668457 188.98779297 C350.59571289 188.37291016 351.42458008 187.75802734 352.27856445 187.12451172 C353.19508789 186.42583984 354.11161133 185.72716797 355.0559082 185.00732422 C356.01625977 184.28287109 356.97661133 183.55841797 357.96606445 182.81201172 C364.96333643 177.26700374 371.6331355 171.45476497 378.1730957 165.38623047 C381.13624141 162.65516331 384.16498516 160.01388011 387.21606445 157.38232422 C389.00291053 155.77894894 390.67213889 154.09960304 392.34106445 152.37451172 C394.96606445 149.81201172 394.96606445 149.81201172 396.96606445 149.81201172 C396.96606445 149.15201172 396.96606445 148.49201172 396.96606445 147.81201172 C398.59082814 146.08242457 400.24961091 144.44844412 401.96606445 142.81201172 C408.50326677 136.52769924 414.37267514 129.94940954 419.96606445 122.81201172 C420.70856445 121.87486328 421.45106445 120.93771484 422.21606445 119.97216797 C432.27872261 106.95709796 440.94019264 92.91549897 444.96606445 76.81201172 C445.29606445 76.81201172 445.62606445 76.81201172 445.96606445 76.81201172 C446.33574706 86.2144682 445.35315983 94.76087079 443.34106445 103.93701172 C443.06963623 105.2023877 442.79820801 106.46776367 442.51855469 107.77148438 C439.02093049 123.64663803 434.32575484 138.32159908 426.96606445 152.81201172 C426.21969727 154.37048828 426.21969727 154.37048828 425.45825195 155.96044922 C418.54352516 169.75515543 408.68339053 182.72856581 397.96606445 193.81201172 C398.6930957 193.56966797 399.42012695 193.32732422 400.16918945 193.07763672 C401.1746582 192.74248047 402.18012695 192.40732422 403.21606445 192.06201172 C404.31305664 191.69333984 405.41004883 191.32466797 406.5402832 190.94482422 C408.702332 190.2298936 410.8710124 189.53444847 413.0480957 188.86669922 C426.44201707 184.68877879 438.09074657 178.76067238 445.09106445 166.18701172 C449.93948327 156.90814122 452.50822174 146.93441666 454.96606445 136.81201172 C455.23507568 135.78962402 455.23507568 135.78962402 455.50952148 134.74658203 C463.22400661 105.00712698 458.08171429 70.22192191 447.96606445 41.81201172 C447.30606445 41.81201172 446.64606445 41.81201172 445.96606445 41.81201172 C445.64968018 42.4459082 445.3332959 43.07980469 445.00732422 43.73291016 C439.11036076 55.4777757 433.41657309 66.68418095 424.96606445 76.81201172 C424.33571289 77.62927734 423.70536133 78.44654297 423.0559082 79.28857422 C413.66988667 91.43065546 402.85047625 102.83136117 391.22387695 112.83935547 C386.98857589 116.53974826 382.87055245 120.373856 378.74902344 124.20019531 C377.42178595 125.400034 376.06778836 126.57040108 374.70068359 127.72460938 C369.93857329 131.81305077 366.02636384 135.89870839 362.3215332 140.97607422 C349.98167296 157.18494596 349.98167296 157.18494596 340.32012939 159.42565918 C326.34844482 161.30610205 311.87540853 159.56516863 297.96606445 157.81201172 C299.57144057 153.54271038 301.70604804 150.23921277 304.52856445 146.68701172 C304.97329102 146.12006592 305.41801758 145.55312012 305.8762207 144.96899414 C307.23327295 143.24496914 308.59943202 141.52844592 309.96606445 139.81201172 C310.72790039 138.84134766 311.48973633 137.87068359 312.2746582 136.87060547 C316.8505773 131.13643235 321.71665288 125.90133615 326.99731445 120.80810547 C329.01879338 118.96461866 329.01879338 118.96461866 329.96606445 116.81201172 C301.79539854 117.63456173 273.13850582 119.75917587 248.49731445 134.96435547 C246.96606445 135.81201172 246.96606445 135.81201172 244.96606445 135.81201172 C244.61838917 129.35412834 245.69737333 124.42445462 247.90356445 118.37451172 C248.21495361 117.50777832 248.52634277 116.64104492 248.84716797 115.74804688 C253.66966927 102.77195273 259.89012788 91.30266263 268.96606445 80.81201172 C269.62606445 79.82201172 270.28606445 78.83201172 270.96606445 77.81201172 C248.8921747 81.76865234 231.31570854 93.83340368 215.18481445 108.80419922 C208.54583099 114.81201172 208.54583099 114.81201172 205.96606445 114.81201172 C206.73664511 98.78393407 212.08565841 82.48865728 218.9152832 68.08935547 C220.05468834 65.73001242 220.05468834 65.73001242 220.96606445 62.81201172 C219.35112066 63.26840888 217.73703757 63.72797484 216.1262207 64.19873047 C214.70372554 64.60258534 213.27371326 64.98097082 211.8371582 65.33154297 C185.28364053 72.29566351 163.1374351 91.65775872 147.20507812 113.23754883 C146.68147705 113.94532471 146.15787598 114.65310059 145.6184082 115.38232422 C145.15426514 116.01928223 144.69012207 116.65624023 144.21191406 117.3125 C142.96606445 118.81201172 142.96606445 118.81201172 140.96606445 119.81201172 C140.62733932 118.39662455 140.29531822 116.97963209 139.96606445 115.56201172 C139.78043945 114.77310547 139.59481445 113.98419922 139.40356445 113.17138672 C138.96606445 110.81201172 138.96606445 110.81201172 138.96606445 106.81201172 C129.1899453 106.84487262 120.70982955 108.75240883 111.42822266 111.640625 C106.23962721 113.24263147 101.37793043 114.30975038 95.96606445 114.81201172 C96.92276038 115.91759741 97.88158966 117.02133679 98.84106445 118.12451172 C99.80592773 119.23439453 99.80592773 119.23439453 100.7902832 120.36669922 C102.24447669 122.00103517 103.72681931 123.61073884 105.2355957 125.19482422 C128.96606445 150.26708038 128.96606445 150.26708038 128.96606445 159.81201172 C128.1359082 159.73982422 127.30575195 159.66763672 126.45043945 159.59326172 C125.2180957 159.50044922 123.98575195 159.40763672 122.71606445 159.31201172 C122.02512695 159.25271484 121.33418945 159.19341797 120.62231445 159.13232422 C115.75073994 158.78435461 111.09928914 158.91785805 106.23168945 159.34326172 C86.5385759 160.79087198 86.5385759 160.79087198 79.9934082 155.41748047 C76.4684659 151.89172895 73.4749176 148.01577657 70.57104492 143.97070312 C68.30141734 140.91806439 65.70557212 138.31401491 62.96606445 135.68701172 C61.66282227 134.39730469 61.66282227 134.39730469 60.33325195 133.08154297 C57.68390007 130.54148778 54.96156862 128.1191385 52.1730957 125.73388672 C48.16254791 122.2415159 44.28862953 118.59810348 40.3918457 114.97998047 C38.17539331 112.92332907 35.94455991 110.88486695 33.6965332 108.86279297 C15.53517874 92.4704016 0.79863853 74.25949326 -11.22924805 52.92919922 C-11.59373047 52.28418457 -11.95821289 51.63916992 -12.33374023 50.97460938 C-13.03608784 49.72524718 -13.73233866 48.47243255 -14.42163086 47.21582031 C-16.13133236 43.93726066 -16.13133236 43.93726066 -19.03393555 41.81201172 C-19.2343042 42.88805664 -19.2343042 42.88805664 -19.4387207 43.98583984 C-20.01581003 46.72594899 -20.74556902 49.3516625 -21.55737305 52.03076172 C-32.61053846 89.28845461 -35.4657547 130.1856946 -17.03393555 165.81201172 C-10.1647712 176.63390641 -0.90264899 182.59798713 10.96606445 186.81201172 C13.10269999 187.61064185 15.23616909 188.41745062 17.36987305 189.22387695 C20.56504392 190.42952892 23.76550833 191.62073773 26.96606445 192.81201172 C26.42079102 192.13525391 25.87551758 191.45849609 25.3137207 190.76123047 C-0.30965212 158.57213483 -17.88354985 121.97065066 -17.03393555 79.81201172 C-13.93284806 81.36255546 -13.49765416 84.40310428 -12.34643555 87.49951172 C2.6034916 125.8989566 42.59664908 173.12730403 79.96606445 191.81201172 C79.96606445 192.47201172 79.96606445 193.13201172 79.96606445 193.81201172 C78.91547852 194.12654297 77.86489258 194.44107422 76.7824707 194.76513672 C70.17375947 196.76990264 63.723834 198.75176432 57.4777832 201.72607422 C54.00004232 203.22966981 50.42624794 204.40418415 46.84106445 205.62451172 C37.89271317 208.69413101 28.98688331 212.29715531 20.7980957 217.07763672 C18.41535307 218.03276596 17.38455503 217.58751978 14.96606445 216.81201172 C12.53248547 215.34327523 10.18719531 213.84643322 7.84106445 212.24951172 C7.17308838 211.79842041 6.5051123 211.3473291 5.81689453 210.88256836 C0.30499046 207.12098102 -4.94433248 203.1304628 -10.03393555 198.81201172 C-10.84088867 198.16232422 -11.6478418 197.51263672 -12.47924805 196.84326172 C-28.25213023 183.59206289 -36.14337397 166.13012672 -42.03393555 146.81201172 C-44.12639411 148.90447028 -43.27466874 153.31317967 -43.28393555 156.18701172 C-43.22576794 182.9997479 -35.45786922 211.12463407 -17.7644043 231.78466797 C-15.59513395 234.32609304 -13.81584203 236.99065979 -12.03393555 239.81201172 C-18.79779416 238.92873724 -24.20026854 236.13948466 -30.28393555 233.18701172 C-31.9062207 232.42324219 -31.9062207 232.42324219 -33.5612793 231.64404297 C-40.55535494 228.27777496 -46.79914892 224.42143951 -53.03393555 219.81201172 C-54.51893555 218.82201172 -54.51893555 218.82201172 -56.03393555 217.81201172 C-56.03393555 217.15201172 -56.03393555 216.49201172 -56.03393555 215.81201172 C-56.69393555 215.81201172 -57.35393555 215.81201172 -58.03393555 215.81201172 C-49.4860963 231.91670522 -49.4860963 231.91670522 -39.03393555 246.81201172 C-38.41260742 247.62283203 -37.7912793 248.43365234 -37.15112305 249.26904297 C-35.16056289 251.82775896 -33.11290844 254.32460344 -31.03393555 256.81201172 C-30.5961377 257.34632813 -30.15833984 257.88064453 -29.70727539 258.43115234 C-28.29580463 260.13995472 -26.85664948 261.82136241 -25.40893555 263.49951172 C-24.96573975 264.04148193 -24.52254395 264.58345215 -24.06591797 265.1418457 C-22.6204161 266.8622147 -22.6204161 266.8622147 -20.03393555 268.81201172 C-17.11582472 268.8953807 -17.11582472 268.8953807 -14.03393555 267.81201172 C-12.69438882 267.49272666 -11.3531038 267.18067867 -10.01049805 266.87451172 C-7.83457862 266.3462994 -5.66023718 265.81233479 -3.48706055 265.27294922 C14.06857386 261.02664054 35.6064026 260.30341451 52.96606445 265.81201172 C53.29606445 266.47201172 53.62606445 267.13201172 53.96606445 267.81201172 C53.15266602 267.89652588 52.33926758 267.98104004 51.5012207 268.06811523 C15.72916313 271.90838041 -19.04733489 280.9441938 -47.03393555 304.81201172 C-47.84088867 305.49779297 -48.6478418 306.18357422 -49.47924805 306.89013672 C-59.96951503 316.06511029 -67.8253046 325.9850853 -75.03393555 337.81201172 C-74.02975586 337.30412109 -73.02557617 336.79623047 -71.9909668 336.27294922 C-67.68161572 334.09971261 -63.35930634 331.95314544 -59.03393555 329.81201172 C-57.93694336 329.26544922 -56.83995117 328.71888672 -55.7097168 328.15576172 C-43.94788504 322.49321532 -31.21267568 317.23713237 -18.03393555 316.81201172 C-20.85825497 320.0983016 -24.55335631 322.04892662 -28.22143555 324.24951172 C-40.78407756 331.95415793 -52.247793 340.77381337 -63.03393555 350.81201172 C-64.2806247 351.87839459 -65.5305635 352.94099163 -66.78393555 353.99951172 C-87.98863728 372.59110879 -102.72124091 394.85973723 -116.89331055 418.97607422 C-117.4347168 419.89130859 -117.97612305 420.80654297 -118.53393555 421.74951172 C-119.2300293 422.93867187 -119.2300293 422.93867187 -119.94018555 424.15185547 C-120.30112305 424.69970703 -120.66206055 425.24755859 -121.03393555 425.81201172 C-121.36393555 425.81201172 -121.69393555 425.81201172 -122.03393555 425.81201172 C-121.36113938 398.59434853 -108.29695744 370.68922201 -89.03393555 351.81201172 C-86.0948917 349.06862058 -83.11311623 346.39700291 -80.03393555 343.81201172 C-85.50258011 344.82792593 -90.79783568 345.88292229 -96.03393555 347.81201172 C-90.71843502 330.13039856 -78.72213977 313.80703577 -66.71362305 300.04638672 C-64.97871735 297.73855867 -64.37030984 296.63990628 -64.03393555 293.81201172 C-64.86258679 291.34421514 -64.86258679 291.34421514 -66.2175293 288.80029297 C-69.00402573 282.99148262 -71.13858264 277.13229837 -73.09643555 270.99951172 C-73.44077637 269.92362793 -73.78511719 268.84774414 -74.13989258 267.73925781 C-77.13731113 258.05692852 -79.09521573 248.33229081 -80.62670898 238.32470703 C-81.04880442 235.72026687 -81.55994785 233.14212645 -82.07299805 230.55419922 C-84.46787754 217.34202475 -84.27379804 203.82001409 -84.28393555 190.43701172 C-84.28494263 189.50959167 -84.28594971 188.58217163 -84.2869873 187.62664795 C-84.27638279 173.15116899 -83.60017171 159.0867004 -81.03393555 144.81201172 C-80.8947168 143.97766602 -80.75549805 143.14332031 -80.61206055 142.28369141 C-73.00729991 97.02480346 -53.39846476 49.64584841 -21.41772461 16.25878906 C-20.21462438 15.00092527 -19.02535975 13.72985655 -17.83862305 12.45654297 C-5.45452796 -0.50413954 -5.45452796 -0.50413954 0 0 Z " transform="translate(297.033935546875,109.18798828125)" style="fill: #F9F9F9;"/><path d="M0 0 C4.24933292 1.51477159 7.92408169 3.67715171 11.6875 6.125 C12.61767944 6.72985229 12.61767944 6.72985229 13.56665039 7.34692383 C40.88823795 25.34798533 61.93454847 51.19716146 77 80 C77.35578125 80.67981934 77.7115625 81.35963867 78.078125 82.06005859 C87.82578424 100.83578085 87.82578424 100.83578085 90 108 C88.71175427 111.86473719 86.87208652 112.93622873 83.6875 115.4375 C80.25758059 118.14388501 77.02581739 120.84481275 74 124 C71.04703948 122.59402699 68.36282534 120.98638696 65.6484375 119.1640625 C64.80700195 118.60066162 63.96556641 118.03726074 63.09863281 117.45678711 C61.75043457 116.55005249 61.75043457 116.55005249 60.375 115.625 C59.43495117 114.99795166 58.49490234 114.37090332 57.52636719 113.72485352 C53.15581822 110.806852 48.79996687 107.87329113 44.4921875 104.86328125 C27.50387868 93.07662987 9.00619785 84.19762763 -9.8125 75.75 C-10.44636627 75.46528839 -11.08023254 75.18057678 -11.73330688 74.88723755 C-19.1738093 71.39395342 -19.1738093 71.39395342 -27 69 C-13.28055064 91.4120468 -13.28055064 91.4120468 2.625 112.25 C5 115 5 115 5 117 C15.54228015 122.61243691 27.0274897 124.72737723 38.75 122.1875 C43.82353418 121.89479611 46.82163741 124.30597881 51 127 C52.99684807 128.26545971 54.99663131 129.5260999 56.99829102 130.78393555 C58.38736477 131.65986049 59.77219445 132.54256241 61.15209961 133.43286133 C61.80573486 133.84947021 62.45937012 134.2660791 63.1328125 134.6953125 C63.70918457 135.06672363 64.28555664 135.43813477 64.87939453 135.82080078 C67.82695653 137.45984343 70.88633722 138.70423474 74 140 C74.05945801 140.99136963 74.11891602 141.98273926 74.18017578 143.00415039 C75.94849687 172.14674345 78.29852515 201.22728878 80.81362629 230.31312752 C81.0139489 232.63034943 81.21373579 234.94761703 81.41343689 237.26489258 C81.6607022 240.13398718 81.91046875 243.00284808 82.16188049 245.87158203 C82.27241257 247.1489624 82.38294464 248.42634277 82.49682617 249.74243164 C82.64313728 251.4174752 82.64313728 251.4174752 82.79240417 253.12635803 C82.95756966 255.41265862 83 257.70774129 83 260 C83.72703125 259.86722656 84.4540625 259.73445313 85.203125 259.59765625 C86.20859375 259.42105469 87.2140625 259.24445313 88.25 259.0625 C89.71179688 258.80146484 89.71179688 258.80146484 91.203125 258.53515625 C113.59961831 255.37844886 141.49063889 253.82288751 163 262 C162.97494385 261.05116943 162.9498877 260.10233887 162.92407227 259.12475586 C162.92949429 254.36161876 163.58253661 249.71807485 164.21484375 245.00390625 C165.62315959 234.12488468 166.92639379 223.23622657 168.19140625 212.33984375 C168.38565092 210.67070046 168.57993628 209.0015619 168.77426147 207.33242798 C169.47266562 201.3302123 170.16927156 195.32778827 170.86547852 189.32531738 C171.46164895 184.18562745 172.05884117 179.04605831 172.65742302 173.90664864 C172.93199282 171.54578433 173.2051127 169.18475546 173.47816467 166.82371521 C173.81299646 163.9308499 174.1577324 161.03942535 174.5096283 158.14859009 C174.84959179 155.34442225 175.14673069 152.53970243 175.41822815 149.7281189 C175.56323003 148.37576591 175.70847767 147.02343924 175.85400391 145.67114258 C176.02810287 143.89239494 176.02810287 143.89239494 176.20571899 142.07771301 C177.40829852 137.41790795 180.03739287 135.61215961 184.04101562 133.20703125 C185.41290039 132.48580078 185.41290039 132.48580078 186.8125 131.75 C187.71548828 131.22277344 188.61847656 130.69554687 189.54882812 130.15234375 C191.22880106 129.17719414 192.9207656 128.22217214 194.62817383 127.29589844 C197.06095202 126.00688212 197.06095202 126.00688212 199.50830078 124.36230469 C202.16426299 122.91019131 203.66855492 122.62103941 206.66015625 122.59375 C207.5308374 122.57401123 208.40151855 122.55427246 209.29858398 122.53393555 C210.21067627 122.52273682 211.12276855 122.51153809 212.0625 122.5 C227.61056549 122.11806644 227.61056549 122.11806644 241 115 C246.67103012 108.39721048 251.65167265 101.34204355 256.5 94.125 C257.473927 92.685802 257.473927 92.685802 258.4675293 91.2175293 C260.3167765 88.481736 262.15994935 85.74198486 264 83 C264.70697021 81.9469165 264.70697021 81.9469165 265.42822266 80.87255859 C267.62969936 77.58886869 269.81956108 74.29768861 272 71 C272.66 70.01 273.32 69.02 274 68 C244.31390987 80.90892517 214.76737642 93.89863711 188.41796875 113.00390625 C187.50942139 113.6602002 186.60087402 114.31649414 185.66479492 114.99267578 C183.92374938 116.26332798 182.19529423 117.55146359 180.48168945 118.85888672 C179.70398193 119.43010254 178.92627441 120.00131836 178.125 120.58984375 C177.10792969 121.36122681 177.10792969 121.36122681 176.0703125 122.14819336 C174 123 174 123 171.38916016 122.28149414 C168.5015544 120.7326445 166.6224716 118.87876719 164.375 116.5 C161.95768291 113.95892947 159.92951172 111.95300782 157 110 C159.03475735 102.21141899 162.03783366 95.16108333 165.5625 87.9375 C166.09480225 86.84131348 166.62710449 85.74512695 167.17553711 84.61572266 C176.63212527 65.37533852 188.12319223 48.33469254 202 32 C203.01707031 30.79730469 203.01707031 30.79730469 204.0546875 29.5703125 C213.69633585 18.42801849 227.93856683 5.23528299 242 0 C242.66 0.33 243.32 0.66 244 1 C243.00033203 1.83917969 243.00033203 1.83917969 241.98046875 2.6953125 C217.74353538 23.77974964 202.67810769 54.04825697 190 83 C190.70008179 82.48783936 190.70008179 82.48783936 191.41430664 81.96533203 C243.49148951 43.93465536 243.49148951 43.93465536 263.0234375 46.76953125 C265.14195057 47.10901639 267.25912453 47.45694583 269.375 47.8125 C271.65477056 48.18078703 273.93472176 48.5479575 276.21484375 48.9140625 C277.91229736 49.18911621 277.91229736 49.18911621 279.64404297 49.46972656 C285.61379569 50.41300482 291.60082867 51.23378397 297.58935547 52.0480957 C298.3938916 52.15984131 299.19842773 52.27158691 300.02734375 52.38671875 C300.72593506 52.48170654 301.42452637 52.57669434 302.14428711 52.67456055 C304 53 304 53 307 54 C305.49339834 58.30227427 303.24148296 61.88654664 300.6875 65.625 C300.24946045 66.2739624 299.8114209 66.9229248 299.36010742 67.59155273 C297.91254159 69.7317072 296.45720802 71.86640063 295 74 C294.2579834 75.08837158 294.2579834 75.08837158 293.50097656 76.19873047 C290.83720562 80.10394495 288.1668485 84.00458094 285.4921875 87.90234375 C283.07228539 91.43050881 280.66183031 94.96489913 278.2578125 98.50390625 C271.35993737 108.65572912 264.40356742 118.7575484 257.29296875 128.76171875 C255.83426353 130.82179818 254.40019209 132.89971186 253 135 C249.96056891 135.23217876 247.04026121 135.31221771 244 135.3125 C226.12850352 135.81328589 210.99917332 143.50746749 195.07446289 151.0637207 C193 152 193 152 190 153 C190.21914063 153.55042969 190.43828125 154.10085938 190.6640625 154.66796875 C193.41944842 161.89245622 195.55591152 169.24141114 197.64477539 176.67797852 C199.37937578 182.85020615 201.19362108 188.99223254 203.0625 195.125 C205.95583934 204.68901599 208.56881091 214.30862832 211 224 C211.19948242 224.79390137 211.39896484 225.58780273 211.60449219 226.40576172 C218.3814634 253.60640703 223.9819765 281.11452792 227 309 C227.16604736 307.81148437 227.33209473 306.62296875 227.50317383 305.3984375 C228.13127427 300.90995209 228.76430269 296.42217227 229.39868164 291.93457031 C229.67049515 290.00701961 229.94104275 288.07928989 230.21020508 286.15136719 C230.60149454 283.35040498 230.99659766 280.5500258 231.39453125 277.75 C231.52597031 276.82496674 231.65740936 275.89993347 231.79283142 274.9468689 C232.58743827 269.47988415 233.54297553 264.07570606 234.6484375 258.6640625 C235.57776125 253.98677399 236.13237913 249.55568867 236.22692871 244.8066864 C236.62282581 225.33130016 236.62282581 225.33130016 242 218 C250.84838259 210.40744841 264.31715952 208.13373207 275.31298828 205.29394531 C281.61561429 203.62422155 287.44788584 201.14963572 293.375 198.4375 C294.25663818 198.054729 295.13827637 197.67195801 296.04663086 197.27758789 C309.49755261 191.3363774 317.67147896 183.30991682 324.875 170.4375 C325.37894287 169.54562988 325.88288574 168.65375977 326.40209961 167.73486328 C334.00524529 153.92289979 340.18337869 139.30746408 344 124 C344.33 124 344.66 124 345 124 C345.37875625 139.35419582 344.76897317 154.08221424 342.37939453 169.25537109 C342.00267219 171.98066873 341.77644686 174.68147154 341.58984375 177.42578125 C340.75705637 187.74851584 338.89227693 193.87934767 331.03808594 200.89819336 C329.38082231 202.29556165 327.6954006 203.64941763 326 205 C324.62022315 206.22380208 323.24430591 207.45199321 321.875 208.6875 C320.95267578 209.47060547 320.95267578 209.47060547 320.01171875 210.26953125 C317.51716397 212.41533274 315.10781018 214.64585677 312.6875 216.875 C308.21226138 220.95626988 303.61649731 224.83173029 298.90234375 228.6328125 C296.78890709 230.35655761 294.70134598 232.09551934 292.62890625 233.8671875 C292.05640137 234.35646729 291.48389648 234.84574707 290.89404297 235.34985352 C289.79055216 236.29563513 288.68916415 237.24387816 287.59033203 238.19506836 C285.0679249 240.35411833 282.71853799 242.15499312 279.80078125 243.76171875 C275.84582284 246.92237589 275.27255513 250.24111297 274 255 C273.53587796 256.37535473 273.05963143 257.74668809 272.5703125 259.11328125 C269.54626852 267.85205402 266.98878392 276.59683857 264.83129883 285.58911133 C263.32422628 291.84069407 261.56835159 297.98090432 259.65063477 304.11816406 C258.40394441 308.21812967 257.73413719 312.05258046 257.375 316.3125 C256.33408074 323.5203749 251.38553184 327.57776895 246.46826172 332.47460938 C236.24551477 343.09511535 228.12282165 356.46925636 219.8515625 368.6171875 C212.54072527 379.2938939 206.17671379 388.57774307 193 392 C187.03793896 392.78109921 181.72810961 391.64857789 176 390 C174.90816406 389.72027344 173.81632812 389.44054687 172.69140625 389.15234375 C166.30125796 387.5099227 160.05155169 385.72374013 153.8125 383.5625 C133.99779707 376.87425642 120.54451859 375.00063388 100.41992188 381.25878906 C93.46440508 383.38923186 86.45035675 385.32821115 79.44921875 387.30224609 C77.20088595 387.94276993 74.95945814 388.60293117 72.71875 389.26953125 C63.2136259 392.0032204 54.91177534 394.13447497 45.625 389.8125 C41.79432593 387.65548006 38.87959456 385.35952699 36 382 C35.56397461 381.51088135 35.12794922 381.0217627 34.67871094 380.51782227 C30.71924632 376.02494093 27.32889313 371.28424377 24 366.3125 C22.85893068 364.62832478 21.71697309 362.9447511 20.57421875 361.26171875 C19.98817871 360.39724121 19.40213867 359.53276367 18.79833984 358.64208984 C6.6045865 338.93412787 6.6045865 338.93412787 -8.52563477 321.69628906 C-10.51699305 319.40518832 -10.89390473 317.37583056 -11.578125 314.42578125 C-11.98345459 312.73001953 -11.98345459 312.73001953 -12.39697266 311 C-12.67847168 309.783125 -12.9599707 308.56625 -13.25 307.3125 C-13.86328203 304.75557053 -14.4805408 302.19959196 -15.1015625 299.64453125 C-15.25817352 298.99924469 -15.41478455 298.35395813 -15.57614136 297.68911743 C-17.31986567 290.57447609 -19.39482525 283.56794889 -21.51464844 276.55810547 C-22.93039504 271.83231463 -24.23812348 267.12643482 -25.3046875 262.30859375 C-25.50884277 261.40238281 -25.71299805 260.49617188 -25.92333984 259.5625 C-26.29270429 257.88112552 -26.64138064 256.19499091 -26.96337891 254.50390625 C-28.33458628 248.2930655 -31.2175787 245.06897494 -36 241 C-36.64026123 240.43514893 -37.28052246 239.87029785 -37.94018555 239.28833008 C-39.1946788 238.18387821 -40.45489209 237.08591069 -41.71875 235.9921875 C-49.57549474 229.13098918 -57.09096684 221.98192469 -64.41796875 214.56054688 C-67.24971208 211.70486369 -70.10686276 208.96595848 -73.1875 206.375 C-74.45996256 205.25184311 -75.73048818 204.12649106 -77 203 C-77.82081055 202.32050293 -78.64162109 201.64100586 -79.48730469 200.94091797 C-87.14722827 193.78737667 -88.38315907 188.02515168 -88.89648438 177.8671875 C-88.95319886 176.16150353 -89.008526 174.45577289 -89.0625 172.75 C-89.14864376 171.02842261 -89.23911058 169.30705587 -89.33398438 167.5859375 C-89.50635856 164.42714773 -89.64891516 161.26952044 -89.76977539 158.10839844 C-89.93612613 154.36117338 -90.45986138 150.71215066 -91 147 C-91.07385587 145.16916865 -91.10849819 143.3361946 -91.09765625 141.50390625 C-91.09443359 140.53388672 -91.09121094 139.56386719 -91.08789062 138.56445312 C-91.07951172 137.57380859 -91.07113281 136.58316406 -91.0625 135.5625 C-91.05798828 134.54478516 -91.05347656 133.52707031 -91.04882812 132.47851562 C-91.03712437 129.98561491 -91.02072848 127.49283926 -91 125 C-88.69264557 128.46103164 -88.2972411 130.98198869 -87.5625 135.0625 C-85.42006508 146.27154852 -81.8801819 155.93648794 -76.88769531 166.16455078 C-76.0682647 167.85885204 -75.2788089 169.56756304 -74.4921875 171.27734375 C-69.46706923 181.94542271 -63.42728101 190.24260558 -53 196 C-51.64648438 196.75796875 -51.64648438 196.75796875 -50.265625 197.53125 C-40.02009146 202.93436719 -29.22139024 207.12782427 -18.48828125 211.44921875 C-17.40458252 211.88911133 -16.32088379 212.32900391 -15.2043457 212.78222656 C-12.02836712 214.03568124 -12.02836712 214.03568124 -8.80151367 214.94433594 C-6.02092591 215.77739939 -3.53893239 216.59291242 -1 218 C0.57997729 221.11734846 0.98880902 222.54867665 1.3125 225.875 C1.4367334 226.71144043 1.5609668 227.54788086 1.68896484 228.40966797 C1.9820372 230.39726889 2.25353516 232.38811133 2.50927734 234.38085938 C3.08800815 238.64907106 3.78218641 242.89196355 4.48828125 247.140625 C6.72053772 260.69259986 8.916544 274.2192824 10.3364563 287.88467407 C10.92869327 293.58384227 11.73443416 299.22693521 12.6328125 304.88671875 C13.03334338 308.28270928 13.06016339 311.58357871 13 315 C13.66 315 14.32 315 15 315 C15.08854248 314.30737061 15.17708496 313.61474121 15.26831055 312.90112305 C16.65382344 303.00785452 18.86191619 293.35417417 21.14868164 283.63647461 C21.80683402 280.83660388 22.45573725 278.03470866 23.10351562 275.23242188 C25.30505923 265.77482923 27.66048931 256.3872273 30.30929565 247.04475403 C31.86070424 241.56443687 33.20293947 236.06039639 34.4375 230.5 C36.1342591 223.12246155 38.21463799 216.00920646 40.70336914 208.86352539 C42.68587745 203.11481754 44.32313513 197.3159348 45.875 191.4375 C49.39801685 178.13043971 53.64791925 165.05624226 58 152 C57.41806885 151.84144531 56.8361377 151.68289063 56.23657227 151.51953125 C49.2292395 149.52393329 42.62601854 146.87314757 35.9375 144 C31.97045647 142.30233505 27.99643552 140.62737483 24 139 C22.81736572 138.51466797 22.81736572 138.51466797 21.61083984 138.01953125 C16.70137092 136.17645237 12.61895988 135.87970653 7.40234375 135.99414062 C1.87988065 136.00634047 -3.59209615 135.97285262 -8.02148438 132.34375 C-11.87672232 127.86505773 -14.68025972 122.74459089 -17.51708984 117.58398438 C-19.81515304 113.57958845 -22.55026892 109.94220739 -25.3125 106.25 C-32.41384472 96.52061564 -39.26647619 86.62089392 -46.11376953 76.71191406 C-47.89066925 74.15718949 -49.6884791 71.61898669 -51.49609375 69.0859375 C-52.01864746 68.34682129 -52.54120117 67.60770508 -53.07958984 66.84619141 C-54.04187486 65.485938 -55.01183508 64.13106973 -55.99072266 62.78271484 C-57.25390625 60.984375 -57.25390625 60.984375 -59 58 C-58.67 57.01 -58.34 56.02 -58 55 C-56.06420898 54.26391602 -56.06420898 54.26391602 -53.49609375 53.75390625 C-52.53912598 53.55829102 -51.5821582 53.36267578 -50.59619141 53.16113281 C-49.55382324 52.96358398 -48.51145508 52.76603516 -47.4375 52.5625 C-46.36935059 52.35077148 -45.30120117 52.13904297 -44.20068359 51.92089844 C-33.72910541 49.87714053 -23.21340717 47.95371523 -12.65771484 46.39428711 C-10.88756393 46.13167516 -9.12171813 45.83817701 -7.36181641 45.51391602 C-0.84374006 44.49581557 2.57490895 45.63147587 7.875 49.4375 C8.90343018 50.12875977 8.90343018 50.12875977 9.95263672 50.83398438 C11.33718132 51.76755933 12.71451078 52.71193454 14.08398438 53.66748047 C16.72560555 55.5046324 19.42865183 57.24448989 22.125 59 C32.60881816 66.05559539 42.79773348 73.54609916 53 81 C45.19920034 55.59266875 29.73208942 29.02627796 10 11 C6.4073975 7.4909464 3.16602433 3.88968703 0 0 Z " transform="translate(383,430)" style="fill: #F9F9F9;"/><path d="M0 0 C2.43715671 0.60498689 4.87949484 1.18321856 7.32397461 1.7578125 C35.71987465 8.56191566 35.71987465 8.56191566 39.64233398 12.484375 C40.15354213 16.9089248 40.24815894 21.3477233 40.39233398 25.796875 C40.47999023 27.02728516 40.56764648 28.25769531 40.65795898 29.52539062 C40.84409943 36.86630447 39.94623903 41.03047486 34.95092773 46.5390625 C33.42839488 48.04194074 31.87827498 49.50323412 30.29962158 50.947052 C28.00279122 53.07762375 25.83387726 55.32316692 23.64962769 57.56809998 C21.3598821 59.91392322 19.03843097 62.22706143 16.71630859 64.54077148 C14.94242395 66.30924719 13.17401622 68.08307544 11.40600586 69.85742188 C6.18802003 75.07796089 0.96354159 80.20084958 -4.66064453 84.98803711 C-7.9826314 87.91717789 -10.97134519 91.20373707 -13.95532227 94.47265625 C-16.35119245 96.97020792 -18.18902013 98.42661379 -21.48266602 99.5546875 C-24.35766602 99.484375 -24.35766602 99.484375 -26.41235352 98.078125 C-27.01305664 97.3871875 -27.61375977 96.69625 -28.23266602 95.984375 C-30.73886625 93.24218605 -33.19423449 90.67965356 -36.04516602 88.296875 C-44.05012658 81.39932004 -51.53497632 73.76945529 -58.35375977 65.703125 C-61.77145108 61.91901454 -65.45183346 58.38516039 -69.12109375 54.84594727 C-70.9081726 53.09504716 -72.63568611 51.29922999 -74.35766602 49.484375 C-75.00767578 48.8440332 -75.65768555 48.20369141 -76.32739258 47.54394531 C-82.36261779 40.93802773 -82.35862175 34.7763105 -82.10766602 26.109375 C-82.11797852 24.83964844 -82.12829102 23.56992187 -82.13891602 22.26171875 C-82.05025264 15.30903224 -82.05025264 15.30903224 -81.35766602 12.484375 C-69.24509923 3.2924456 -49.25739082 -0.08789361 -34.51000977 -2.15625 C-22.17864699 -4.21520712 -12.23842624 -3.0446638 0 0 Z " transform="translate(528.357666015625,696.515625)" style="fill: #242323;"/><path d="M0 0 C-0.64324219 0.59683594 -1.28648437 1.19367188 -1.94921875 1.80859375 C-26.46288535 25.34311247 -39.79386231 53.13564476 -47 86 C-45.76636719 84.62328125 -45.76636719 84.62328125 -44.5078125 83.21875 C-28.43826788 65.47942263 -28.43826788 65.47942263 -21 63 C-20.9906543 64.00675781 -20.98130859 65.01351562 -20.97167969 66.05078125 C-20.93111475 69.86825177 -20.86519203 73.6849711 -20.79248047 77.50195312 C-20.76464899 79.13857201 -20.7432513 80.77531587 -20.72900391 82.41210938 C-20.62325352 93.88955099 -19.24374277 103.97003177 -16 115 C-15.41310595 117.16570487 -14.82908149 119.33219308 -14.25 121.5 C-13.83515458 123.00050471 -13.41928726 124.50073041 -13 126 C-12.01 126 -11.02 126 -10 126 C-9.731875 125.071875 -9.46375 124.14375 -9.1875 123.1875 C-8.05519579 120.14815711 -7.30099489 119.09926383 -5 117 C-4.70867187 118.0415625 -4.41734375 119.083125 -4.1171875 120.15625 C4.73017507 153.07245576 4.73017507 153.07245576 25 179 C25.29003906 178.04287109 25.29003906 178.04287109 25.5859375 177.06640625 C25.97652344 175.82697266 25.97652344 175.82697266 26.375 174.5625 C26.63023437 173.73878906 26.88546875 172.91507813 27.1484375 172.06640625 C28 170 28 170 30 169 C30.32685791 169.64960693 30.65371582 170.29921387 30.99047852 170.96850586 C32.50452677 173.96332365 34.03338484 176.95034892 35.5625 179.9375 C36.07619141 180.95908203 36.58988281 181.98066406 37.11914062 183.03320312 C43.62196584 195.67534159 52.12575069 205.4144936 63.4453125 213.953125 C67.81130214 217.45125737 71.83554004 221.31954382 75.91796875 225.140625 C78.349025 227.41247409 80.83510452 229.59971955 83.375 231.75 C86.59210203 234.52871287 89.35361314 237.54305584 92.06640625 240.8125 C93.74380614 242.71016452 95.47477893 244.43988392 97.29296875 246.19921875 C101.21957397 250.10042415 104.49689667 254.34365119 107.75 258.8125 C108.35199219 259.63564697 108.95398438 260.45879395 109.57421875 261.30688477 C117.89689524 272.83964222 126.93013323 285.6078991 132 299 C131.67 299.66 131.34 300.32 131 301 C130.31035156 300.04480469 129.62070312 299.08960938 128.91015625 298.10546875 C119.40058694 284.99427985 109.73052272 272.68866233 97.37890625 262.1015625 C95.49642782 260.438552 93.66234782 258.75058738 91.83984375 257.0234375 C85.17392401 250.71156844 78.41565989 244.86785587 71.06640625 239.3671875 C66.47948966 235.82620475 62.23341952 231.95628822 58 228 C58 230.64 58 233.28 58 236 C53.5889319 232.29840439 51.39127535 227.53442614 48.8125 222.5 C48.33562744 221.57960938 47.85875488 220.65921875 47.36743164 219.7109375 C41.74278761 208.73273914 36.47519061 197.50100798 32 186 C30.02 186.99 30.02 186.99 28 188 C28 192.29 28 196.58 28 201 C27.34 201 26.68 201 26 201 C26 200.34 26 199.68 26 199 C25.26265625 198.74734375 24.5253125 198.4946875 23.765625 198.234375 C11.53405685 192.77508752 3.41232741 176.02613561 -1.71875 164.3671875 C-4.9445471 155.88963537 -7.2606973 147.05645811 -8 138 C-8.66 138 -9.32 138 -10 138 C-10.26554687 138.53109375 -10.53109375 139.0621875 -10.8046875 139.609375 C-13.203125 144.40625 -15.6015625 149.203125 -18 154 C-25.77687524 147.41783313 -27.69077301 132.59913964 -30 123 C-30.17942139 122.25661377 -30.35884277 121.51322754 -30.54370117 120.74731445 C-31.10438802 117.37149366 -31.11173988 114.15279124 -31.09765625 110.73046875 C-31.0962413 110.04946609 -31.09482635 109.36846344 -31.09336853 108.66682434 C-31.08780298 106.50700353 -31.07525703 104.34728911 -31.0625 102.1875 C-31.05748054 100.71679838 -31.05291841 99.24609512 -31.04882812 97.77539062 C-31.03784488 94.1835596 -31.02060422 90.5917902 -31 87 C-34.97899684 93.11507515 -38.85651803 99.19124993 -42.0625 105.75 C-42.39193604 106.41612305 -42.72137207 107.08224609 -43.06079102 107.76855469 C-49.03659048 120.02449442 -49.03659048 120.02449442 -53 133 C-53.66 133 -54.32 133 -55 133 C-56.19935534 129.33175894 -57.33163881 125.64813777 -58.41796875 121.94482422 C-58.96953882 120.1017843 -59.56176491 118.27105462 -60.15625 116.44140625 C-65.56631541 97.5641423 -65.65512249 73.57079273 -59 55 C-58.72091797 54.2059375 -58.44183594 53.411875 -58.15429688 52.59375 C-54.14869379 41.43589171 -49.38203915 30.99896482 -43 21 C-42.50628906 20.15050781 -42.01257813 19.30101562 -41.50390625 18.42578125 C-34.96356359 8.41990637 -22.14976231 4.45867105 -11.25 0.9375 C-10.24948608 0.61313965 -10.24948608 0.61313965 -9.22875977 0.28222656 C-5.84052438 -0.72923895 -3.35059512 -1.34531471 0 0 Z " transform="translate(247,492)" style="fill: #F6F7F7;"/><path d="M0 0 C11.75012294 0.76919541 23.71060707 1.89872797 31.87109375 11.12109375 C35.07552618 14.90551617 37.37739017 18.90959289 39.625 23.3125 C39.99367188 24.00794922 40.36234375 24.70339844 40.7421875 25.41992188 C45.28222108 34.14030327 48.48792272 42.92370533 50.6875 52.5 C50.89955078 53.37269531 51.11160156 54.24539063 51.33007812 55.14453125 C56.62972385 77.71400045 53.82587843 99.61100444 49 122 C48.34 122 47.68 122 47 122 C46.30777344 120.43765625 46.30777344 120.43765625 45.6015625 118.84375 C42.08553076 111.06053844 38.35132571 103.55541643 33.8125 96.3125 C33.40918457 95.66667969 33.00586914 95.02085937 32.59033203 94.35546875 C28.2522694 87.18098704 28.2522694 87.18098704 22 82 C22.061875 83.19625 22.12375 84.3925 22.1875 85.625 C22.08877825 106.75145416 11.3609128 130.20550031 -1.4921875 146.62890625 C-3 148 -3 148 -6 148 C-6.33 142.06 -6.66 136.12 -7 130 C-7.66 129.67 -8.32 129.34 -9 129 C-10.98383232 133.08107917 -12.96208294 137.16484237 -14.9375 141.25 C-15.23311829 141.86069336 -15.52873657 142.47138672 -15.83331299 143.10058594 C-19.65656055 151.00699653 -23.35025544 158.95520585 -26.875 167 C-31.71276375 177.92128962 -37.43224464 187.53672947 -46 196 C-46.33 196 -46.66 196 -47 196 C-47 190.72 -47 185.44 -47 180 C-49.31343019 183.08457359 -50.78574044 185.40779594 -52.34765625 188.82421875 C-53.00048584 190.23127075 -53.00048584 190.23127075 -53.66650391 191.66674805 C-54.12718262 192.66359619 -54.58786133 193.66044434 -55.0625 194.6875 C-61.85166176 209.09892579 -69.25400129 224.04535113 -80 236 C-80.99 236.33 -81.98 236.66 -83 237 C-81.75297849 230.64549677 -80.42635741 224.31672565 -79 218 C-83.91159015 222.10262236 -88.50673705 226.45017355 -93 231 C-96.85118365 234.89900217 -100.7642179 238.60824349 -104.94140625 242.16015625 C-108.07341206 244.9593493 -110.99164616 247.96885827 -113.93823242 250.95996094 C-116.49311956 253.53912148 -119.08676988 255.9889749 -121.875 258.3125 C-132.21345874 267.2430792 -140.60758839 277.77614088 -148.50634766 288.86621094 C-149.06499512 289.64899414 -149.62364258 290.43177734 -150.19921875 291.23828125 C-150.93918091 292.2907605 -150.93918091 292.2907605 -151.6940918 293.36450195 C-153 295 -153 295 -155 296 C-148.21972413 277.6616373 -135.11907113 261.99962675 -122.34423828 247.52783203 C-121.13371424 246.1519767 -119.93889069 244.76234564 -118.74609375 243.37109375 C-115.08100362 239.1322126 -111.27745559 235.36355131 -107 231.74609375 C-104.90129923 229.9138296 -102.95250178 227.9868231 -101 226 C-96.16434918 221.10833778 -90.98995998 216.67730268 -85.734375 212.24609375 C-68.7419218 197.87951396 -55.55738374 182.78599075 -47 162 C-46.34 162.33 -45.68 162.66 -45 163 C-44.375 166.0625 -44.375 166.0625 -44 169 C-24.67991731 151.38998112 -15.86214695 123.71718401 -7 100 C-4.14132444 102.85867556 -3.49887166 106.34173436 -2.375 110.125 C-2.14554688 110.87910156 -1.91609375 111.63320313 -1.6796875 112.41015625 C-1.11414562 114.27173159 -0.55633178 116.13565151 0 118 C8.05280547 97.76897641 9.90140844 77.59000363 11 56 C21.99204 59.44887511 30.25402696 67.72589243 38 76 C38 53.00031908 19.22024479 25.53613227 6 8 C5.35289062 7.12859375 4.70578125 6.2571875 4.0390625 5.359375 C2.7029011 3.56528035 1.35356233 1.78100307 0 0 Z " transform="translate(788,495)" style="fill: #F6F7F6;"/><path d="M0 0 C-1.38140417 22.38827454 -13.7963992 36.8338029 -28.875 52.1875 C-29.505271 52.83557617 -30.13554199 53.48365234 -30.78491211 54.15136719 C-33.97677547 57.33770167 -36.53755183 59.75288996 -41 61 C-42.61780157 59.38219843 -42.22272147 57.54364482 -42.31640625 55.30859375 C-42.35830078 54.36435547 -42.40019531 53.42011719 -42.44335938 52.44726562 C-42.48267578 51.45404297 -42.52199219 50.46082031 -42.5625 49.4375 C-42.60568359 48.44041016 -42.64886719 47.44332031 -42.69335938 46.41601562 C-42.79980298 43.9441585 -42.90181928 41.4721969 -43 39 C-53.9508461 48.7091518 -63.84923968 58.77385952 -72 71 C-72.66 71 -73.32 71 -74 71 C-75.46042102 68.99075834 -76.69789314 66.87865189 -77.9765625 64.75 C-83.40643197 57.37040907 -90.22125618 52.12656892 -97.8125 47.125 C-98.65748047 46.5578125 -99.50246094 45.990625 -100.37304688 45.40625 C-102.57658515 43.92905675 -104.78659921 42.46235159 -107 41 C-107.99 40.34 -108.98 39.68 -110 39 C-108.70821559 44.40200753 -106.62304043 48.95709421 -104.0234375 53.86328125 C-103 56 -103 56 -103 58 C-116.10726192 56.24286706 -131.18801705 40.94580941 -139.421875 31.0859375 C-145.27140576 23.35413199 -146.9006618 14.49335046 -148 5 C-147.57421875 2.515625 -147.57421875 2.515625 -147 1 C-146.57589844 1.47050781 -146.15179688 1.94101562 -145.71484375 2.42578125 C-144.83505859 3.35970703 -144.83505859 3.35970703 -143.9375 4.3125 C-143.36902344 4.92738281 -142.80054688 5.54226563 -142.21484375 6.17578125 C-135.99538965 11.29832987 -129.85121556 11.44252136 -122.11450195 11.41992188 C-121.04035538 11.42839142 -119.9662088 11.43686096 -118.85951233 11.44558716 C-115.31898047 11.46892792 -111.77888415 11.46997972 -108.23828125 11.46875 C-105.76596403 11.47585499 -103.29364845 11.48355448 -100.82133484 11.49182129 C-95.64069029 11.50526067 -90.4601981 11.50683796 -85.27954102 11.50097656 C-78.66335154 11.49509127 -72.0478986 11.52562737 -65.43185139 11.56609344 C-60.32464202 11.59203707 -55.2176082 11.59484157 -50.11034203 11.59120178 C-47.67245831 11.59288781 -45.23456604 11.60248005 -42.79674721 11.62034607 C-26.98271236 11.72346273 -15.10453735 11.55797377 -2.42578125 1.13671875 C-1 0 -1 0 0 0 Z " transform="translate(581,835)" style="fill: #F9FAFA;"/><path d="M0 0 C1.16278916 3.48836747 0.88366995 3.88968647 -0.625 7.0625 C-1.00011719 7.85140625 -1.37523437 8.6403125 -1.76171875 9.453125 C-2.17035156 10.29359375 -2.57898438 11.1340625 -3 12 C-3.39832031 12.88171875 -3.79664063 13.7634375 -4.20703125 14.671875 C-7.07531539 20.82730383 -9.469278 24.46490348 -15.875 27.25 C-24.04636352 29.21112724 -28.93875976 26.97816352 -36 23 C-34.87652209 19.62956627 -34.45548678 19.36855047 -31.5625 17.6171875 C-30.83981934 17.17608643 -30.11713867 16.73498535 -29.37255859 16.28051758 C-28.19814209 15.58478638 -28.19814209 15.58478638 -27 14.875 C-25.80431396 14.15509888 -25.80431396 14.15509888 -24.58447266 13.4206543 C-16.55368661 8.63613781 -8.31642029 4.26348129 0 0 Z " transform="translate(629,514)" style="fill: #F3F4F3;"/><path d="M0 0 C12.77587036 5.36271102 24.33715918 12.59548626 36 20 C34.2561389 24.19231253 32.24179504 25.4042138 28.2109375 27.23046875 C23.83399528 28.7538921 20.28864904 28.85932294 15.9296875 27.22265625 C7.08820857 22.49935667 2.86661588 12.19003326 0 3 C0 2.01 0 1.02 0 0 Z " transform="translate(382,514)" style="fill: #F5F6F6;"/><path d="M0 0 C-1.55604388 1.61042988 -3.12012756 3.21309368 -4.6875 4.8125 C-5.55761719 5.70582031 -6.42773438 6.59914063 -7.32421875 7.51953125 C-11.2766578 11.1834711 -13.53138679 13 -19 13 C-17.880462 10.48103951 -16.68018448 8.60265345 -14.9375 6.4375 C-12.83615651 4.07973981 -12.83615651 4.07973981 -12 1 C-10.0390625 0.234375 -10.0390625 0.234375 -7.625 -0.25 C-6.83351563 -0.42015625 -6.04203125 -0.5903125 -5.2265625 -0.765625 C-3 -1 -3 -1 0 0 Z " transform="translate(544,738)" style="fill: #E2E2E2;"/><path d="M0 0 C3.55085243 -0.23859483 6.60860508 -0.13551169 10 1 C12.92614565 4.25190796 16 8.47835139 16 13 C10.13416597 12.22333905 7.01829625 9.13136519 3 5 C1 2.0625 1 2.0625 0 0 Z " transform="translate(472,738)" style="fill: #E8E8E8;"/><path d="M0 0 C2.62758146 1.11926591 5.25199924 2.24509198 7.875 3.375 C8.62136719 3.69210937 9.36773437 4.00921875 10.13671875 4.3359375 C10.85214844 4.6453125 11.56757813 4.9546875 12.3046875 5.2734375 C12.96452637 5.55622559 13.62436523 5.83901367 14.30419922 6.13037109 C16 7 16 7 18 9 C17.34 10.32 16.68 11.64 16 13 C13.50853553 11.79174467 11.03393348 10.5605403 8.5625 9.3125 C7.85544922 8.97283203 7.14839844 8.63316406 6.41992188 8.28320312 C1.21769484 5.61986201 1.21769484 5.61986201 0.02734375 2.23046875 C0.01832031 1.49441406 0.00929688 0.75835937 0 0 Z " transform="translate(381,509)" style="fill: #313131;"/><path d="M0 0 C-0.33 2.31 -0.66 4.62 -1 7 C-1.66 6.67 -2.32 6.34 -3 6 C-5.07315733 6.77608267 -5.07315733 6.77608267 -7.3125 7.9375 C-10.70792381 9.53115859 -13.18064475 10.49282003 -17 10 C-17.33 9.34 -17.66 8.68 -18 8 C-15.3773768 6.66180502 -12.75213401 5.3292849 -10.125 4 C-9.00544922 3.42765625 -9.00544922 3.42765625 -7.86328125 2.84375 C-7.14785156 2.4828125 -6.43242188 2.121875 -5.6953125 1.75 C-5.03547363 1.41484375 -4.37563477 1.0796875 -3.69580078 0.734375 C-2 0 -2 0 0 0 Z " transform="translate(632,509)" style="fill: #2C2C2D;"/><path d="M0 0 C-3.06679465 3.42409111 -6.11716523 5.27342685 -10.25 7.25 C-11.32765625 7.77078125 -12.4053125 8.2915625 -13.515625 8.828125 C-14.33546875 9.21484375 -15.1553125 9.6015625 -16 10 C-15.34 8.35 -14.68 6.7 -14 5 C-14.66 4.67 -15.32 4.34 -16 4 C-10.4174808 0.67424388 -6.50313209 -0.46450943 0 0 Z " transform="translate(620,518)" style="fill: #29292B;"/><path d="M0 0 C3.465 1.98 3.465 1.98 7 4 C6.67 5.98 6.34 7.96 6 10 C5.01 10.33 4.02 10.66 3 11 C2.49384702 9.73160474 1.99530901 8.46016898 1.5 7.1875 C1.2215625 6.47980469 0.943125 5.77210938 0.65625 5.04296875 C0 3 0 3 0 0 Z " transform="translate(470,873)" style="fill: #3A3A3A;"/><path d="M0 0 C0.99 0 1.98 0 3 0 C2.44151174 4.18358477 -0.04446302 7.02629569 -2.5625 10.25 C-2.98724609 10.80429687 -3.41199219 11.35859375 -3.84960938 11.9296875 C-4.89398341 13.29089411 -5.94622464 14.64605833 -7 16 C-7 12.11908033 -5.34682267 9.60326704 -3.5 6.3125 C-3.16613281 5.70599609 -2.83226562 5.09949219 -2.48828125 4.47460938 C-1.664463 2.97996769 -0.83296549 1.48956329 0 0 Z " transform="translate(641,775)" style="fill: #CCCBCC;"/><path d="M0 0 C0.66 0.33 1.32 0.66 2 1 C2 3.97 2 6.94 2 10 C0.35 10.33 -1.3 10.66 -3 11 C-4 8 -4 8 -3.22265625 5.95703125 C-2.83980469 5.24933594 -2.45695313 4.54164063 -2.0625 3.8125 C-1.68222656 3.09707031 -1.30195312 2.38164063 -0.91015625 1.64453125 C-0.60980469 1.10183594 -0.30945313 0.55914063 0 0 Z " transform="translate(740,674)" style="fill: #3F4042;"/><path d="M0 0 C0.33 0 0.66 0 1 0 C1 5.94 1 11.88 1 18 C0.67 18 0.34 18 0 18 C-0.33 14.7 -0.66 11.4 -1 8 C-1.99 9.32 -2.98 10.64 -4 12 C-3.45660208 7.43545749 -2.20536179 4.0271824 0 0 Z " transform="translate(770,252)" style="fill: #4D4E4F;"/><path d="M0 0 C2.83374881 3.20336822 3.5205537 5.78087253 4 10 C-2.875 6.25 -2.875 6.25 -4 4 C-3.01 3.67 -2.02 3.34 -1 3 C-0.67 2.01 -0.34 1.02 0 0 Z " transform="translate(433,502)" style="fill: #3B3B3B;"/><path d="M0 0 C0.66 0 1.32 0 2 0 C2 0.66 2 1.32 2 2 C2.639375 2.268125 3.27875 2.53625 3.9375 2.8125 C6 4 6 4 7 7 C6.0625 9.1875 6.0625 9.1875 5 11 C4.16151196 9.54462432 3.32936066 8.08559627 2.5 6.625 C2.0359375 5.81289063 1.571875 5.00078125 1.09375 4.1640625 C0 2 0 2 0 0 Z " transform="translate(239,325)" style="fill: #3E3E3E;"/><path d="M0 0 C0.66 0.33 1.32 0.66 2 1 C2 1.66 2 2.32 2 3 C2.66 3.66 3.32 4.32 4 5 C-1.2734375 8.22265625 -1.2734375 8.22265625 -3 9 C-3.66 8.67 -4.32 8.34 -5 8 C-3.35 5.36 -1.7 2.72 0 0 Z " transform="translate(226,439)" style="fill: #3E3F3E;"/><path d="M0 0 C3.55007718 3.9050849 4.81819916 6.97734643 6 12 C0.72727273 6.90909091 0.72727273 6.90909091 -1 4 C-0.6875 1.75 -0.6875 1.75 0 0 Z " transform="translate(373,781)" style="fill: #CACACA;"/><path d="M0 0 C-0.33 2.31 -0.66 4.62 -1 7 C-3.31 6.01 -5.62 5.02 -8 4 C-2.7826087 0 -2.7826087 0 0 0 Z " transform="translate(632,509)" style="fill: #393A3B;"/><path d="M0 0 C0.33 0.99 0.66 1.98 1 3 C1.99 2.67 2.98 2.34 4 2 C3.67 4.97 3.34 7.94 3 11 C2.34 11 1.68 11 1 11 C0.67 7.37 0.34 3.74 0 0 Z " transform="translate(395,734)" style="fill: #3A3A3A;"/><path d="M0 0 C0.66 0 1.32 0 2 0 C1.88512252 1.58409994 1.75765492 3.16728963 1.625 4.75 C1.52058594 6.07257812 1.52058594 6.07257812 1.4140625 7.421875 C1.00149945 9.99066382 0.28839043 11.75841015 -1 14 C-1.02705729 12.22925083 -1.04642195 10.45838289 -1.0625 8.6875 C-1.07410156 7.70136719 -1.08570313 6.71523438 -1.09765625 5.69921875 C-1 3 -1 3 0 0 Z " transform="translate(610,729)" style="fill: #464646;"/><path d="M0 0 C0.99 0.33 1.98 0.66 3 1 C3.6875 3.0625 3.6875 3.0625 4 5 C1.03 4.505 1.03 4.505 -2 4 C-2.33 4.99 -2.66 5.98 -3 7 C-2.25 2.25 -2.25 2.25 0 0 Z " transform="translate(277,677)" style="fill: #474747;"/><path d="M0 0 C1.80125336 2.70188004 3.00243753 4.93057703 4 8 C3.67 8.99 3.34 9.98 3 11 C1.35 8.69 -0.3 6.38 -2 4 C-1.34 2.68 -0.68 1.36 0 0 Z " transform="translate(824,563)" style="fill: #555555;"/><path d="M0 0 C0 1.65 0 3.3 0 5 C-1.98 5 -3.96 5 -6 5 C-6.33 4.34 -6.66 3.68 -7 3 C-2.25 0 -2.25 0 0 0 Z " transform="translate(621,514)" style="fill: #343435;"/><path d="M0 0 C3.465 1.485 3.465 1.485 7 3 C5.68 4.32 4.36 5.64 3 7 C0 2.25 0 2.25 0 0 Z " transform="translate(355,497)" style="fill: #454545;"/><path d="M0 0 C3.45925163 1.2491742 6.14693203 2.67527795 9 5 C7.68 5.33 6.36 5.66 5 6 C3.35 4.02 1.7 2.04 0 0 Z " transform="translate(383,430)" style="fill: #CDCDCD;"/><path d="M0 0 C-1.15173355 2.46800047 -2.04783565 4.04783565 -4 6 C-4.99 4.68 -5.98 3.36 -7 2 C-4.35261084 0.5393715 -3.10551666 0 0 0 Z " transform="translate(657,498)" style="fill: #474748;"/><path d="M0 0 C0.33 0 0.66 0 1 0 C1 1.98 1 3.96 1 6 C0.01 6.495 0.01 6.495 -1 7 C-2.32 5.68 -3.64 4.36 -5 3 C-3.35 3 -1.7 3 0 3 C0 2.01 0 1.02 0 0 Z " transform="translate(819,453)" style="fill: #303030;"/><path d="M0 0 C2.59047483 1.72698322 3.62746184 3.6484275 5.0625 6.375 C1.62654834 4.84791037 -1.05662454 2.77572955 -3.9375 0.375 C-1.9375 -0.625 -1.9375 -0.625 0 0 Z " transform="translate(796.9375,440.625)" style="fill: #404040;"/><path d="M0 0 C0.66 1.32 1.32 2.64 2 4 C-1 6 -1 6 -5 7 C-3.35 4.69 -1.7 2.38 0 0 Z " transform="translate(699,297)" style="fill: #3E3E3E;"/></svg>