<svg height="512" viewBox="0 0 64 64" width="512" xmlns="http://www.w3.org/2000/svg"><g id="Lineal_color" data-name="Lineal color"><path d="m20 29 6-11-1-3 1-3 5-9 7 10v5l2 2 4 9z" fill="#c5c3ce"/><ellipse cx="32" cy="32" fill="#9b9faa" rx="29" ry="5"/><path d="m46 51a21.8 21.8 0 0 1 -1 6l-1 4h-24l-1-4a21.8 21.8 0 0 1 -1-6c0-3 1-3 2-5s-1-3-1-6 3-6 3-6h20s3 3 3 6-2 4-1 6 2 2 2 5z" fill="#a9adbc"/><path d="m32 51-29 10h58z" fill="#c5c3ce"/><path d="m22 34c0-1.1 4.48-2 10-2s10 .9 10 2v3c0 7.73-4.48 14-10 14s-10-6.27-10-14z" fill="#fae0bb"/><path d="m40 45v11l-2-1-2 5-1-1-3 3-3-3-1 1-2-5-2 1v-11c0-7 8-5 8-5s8-2 8 5z" fill="#d2d0db"/><path d="m28 38a1.05 1.05 0 0 1 -.71-.29 1.15 1.15 0 0 1 -.21-.33.94.94 0 0 1 0-.76 1.15 1.15 0 0 1 .21-.33 1 1 0 0 1 1.42 0 1.15 1.15 0 0 1 .21.33.94.94 0 0 1 0 .76 1.15 1.15 0 0 1 -.21.33 1.05 1.05 0 0 1 -.71.29z" fill="#62696a"/><path d="m36 38h-.2l-.18-.06a.76.76 0 0 1 -.18-.09l-.15-.12a1 1 0 0 1 -.29-.73.83.83 0 0 1 .08-.38 1 1 0 0 1 .21-.33l.15-.12a.76.76 0 0 1 .18-.09.63.63 0 0 1 .18-.08 1 1 0 0 1 .91.27 1 1 0 0 1 .21.33 1 1 0 0 1 .08.4 1 1 0 0 1 -1 1z" fill="#62696a"/><g fill="#9b9faa"><path d="m30 38a1 1 0 0 1 -1-.81 1.88 1.88 0 0 0 -1-.19 1.88 1.88 0 0 0 -1 .19 1 1 0 0 1 -2-.19c0-.08 0-2 3-2s3 1.92 3 2a1 1 0 0 1 -1 1z"/><path d="m38 38a1 1 0 0 1 -1-.81 1.88 1.88 0 0 0 -1-.19 1.88 1.88 0 0 0 -1 .19 1 1 0 0 1 -2-.19c0-.08 0-2 3-2s3 1.92 3 2a1 1 0 0 1 -1 1z"/><path d="m34 45h-4a1 1 0 0 1 0-2h4a1 1 0 0 1 0 2z"/></g><path d="m31 36-1 5 2 2 2-2-1-5" fill="#fcedd8"/><circle cx="13" cy="10" fill="#b572eb" r="7"/><path d="m21 11v5c0 2-6 5-6 5v40h-4v-40s-6-3-6-5v-5s3 5 5 5l3-5 3 5c2 0 5-5 5-5z" fill="#4e5454"/><path d="m61.33 60.05-14.77-5.05a19.91 19.91 0 0 0 .44-4 5.83 5.83 0 0 0 -1.28-4.14 8.58 8.58 0 0 1 -.82-1.31c-.32-.64-.19-1 .25-2a8.22 8.22 0 0 0 .85-3.55 7 7 0 0 0 -.54-2.57c7.85-.69 16.54-2.2 16.54-5.43 0-3.44-9.66-4.9-18-5.53l-3.06-6.87a1 1 0 0 0 -.21-.3l-1.73-1.71v-4.59a1 1 0 0 0 -.18-.57l-7-10a1 1 0 0 0 -1.69.09l-5 9a1 1 0 0 0 -.07.17l-1 3a1 1 0 0 0 0 .63l.86 2.59-4.65 8.52q-2.21.17-4.26.4v-5.22c2.16-1.13 6-3.45 6-5.61v-5a1 1 0 0 0 -.73-1 1 1 0 0 0 -.28 0 8 8 0 0 0 -16 0 1 1 0 0 0 -1 1v5c0 2.16 3.84 4.48 6 5.61v6.12c-7.13 1.4-8 3.1-8 4.27s.87 2.87 8 4.27v21.26l-7.33 2.52a1 1 0 0 0 .33 1.95h58a1 1 0 0 0 .33-1.95zm-51.33-.05h-1l1-.36zm0-25.76c-5.41-1.11-6-2.24-6-2.24s.57-1.15 6-2.26zm35 16.76a17.77 17.77 0 0 1 -.35 3.3l-3.65-1.3v-7.37a19.08 19.08 0 0 0 2-8.63 6.24 6.24 0 0 1 1 3 6.35 6.35 0 0 1 -.69 2.74 4 4 0 0 0 -.21 3.71 10.58 10.58 0 0 0 1 1.59 4 4 0 0 1 .9 2.96zm-9-16a3.71 3.71 0 0 0 -2.13.53 1 1 0 0 0 -1.07-.53 1 1 0 0 0 -.8 1 1 1 0 0 0 -.8-1 1 1 0 0 0 -1.06.51 3.71 3.71 0 0 0 -2.14-.51c-3 0-3 1.92-3 2a1 1 0 0 0 2 .19h.05a1.07 1.07 0 0 0 0 .22 1.15 1.15 0 0 0 .21.33 1.06 1.06 0 0 0 .39.22 6 6 0 0 0 -2.82 1.32 5.11 5.11 0 0 0 -1.35 1.93 18.11 18.11 0 0 1 -.48-4.21v-2.77c.7-.46 3.84-1.23 9-1.23s8.3.77 9 1.23v2.77a18.11 18.11 0 0 1 -.5 4.18 5.11 5.11 0 0 0 -1.35-1.93 6 6 0 0 0 -2.82-1.32 1.07 1.07 0 0 0 .39-.22 1.05 1.05 0 0 0 .26-.55h.05a1 1 0 0 0 1.97-.16c0-.08 0-2-3-2zm-.61 2.79h-.74a1 1 0 0 0 .32-.56h.05a1 1 0 0 0 .26.55zm-2.48 2.88-.91.91-.91-.91.91-4.47a1 1 0 0 0 0-.2 1 1 0 0 0 0 .18zm-3.57-2.92c-.25 0-.5 0-.77 0a1.07 1.07 0 0 0 .13-.09 1.15 1.15 0 0 0 .21-.33 1.07 1.07 0 0 0 0-.22h.05a1 1 0 0 0 .38.64zm-2.46-19.27a1 1 0 0 0 .07-.8l-.9-2.68.87-2.6 4.18-7.52 5.9 8.44v4.68a1 1 0 0 0 .29.71l1.87 1.87 2.55 5.74c-5.09-.32-9.26-.32-9.71-.32-3.23 0-6.38.09-9.37.27zm5.12 9.52c17.8 0 27.55 2.58 28 4-.24.76-4.38 2.61-15.55 3.53a15 15 0 0 0 -1.56-2c-.97-2.34-8.48-2.53-10.89-2.53s-9.92.19-10.89 2.49a15 15 0 0 0 -1.56 2q-1.84-.15-3.55-.35v-6.3a142.23 142.23 0 0 1 16-.84zm-14.56 27-1.44.5v-18.33l2.55.26a7 7 0 0 0 -.55 2.57 8.22 8.22 0 0 0 .86 3.54c.44 1 .57 1.38.25 2a8.58 8.58 0 0 1 -.82 1.31 5.83 5.83 0 0 0 -1.29 4.15 19.92 19.92 0 0 0 .44 4zm2.46-7a10.58 10.58 0 0 0 1-1.59 4 4 0 0 0 -.21-3.71 6.35 6.35 0 0 1 -.69-2.7 6.24 6.24 0 0 1 1-3 19.08 19.08 0 0 0 2 8.64v7.36l-3.65 1.3a17.78 17.78 0 0 1 -.35-3.3 4 4 0 0 1 .9-3zm-6.9-44a6 6 0 0 1 5.14 9.09l.1.06a8 8 0 0 1 -1.78 1.69l-2.61-4.35a1 1 0 0 0 -1.71 0l-2.61 4.35a8 8 0 0 1 -1.77-1.68l.1-.06a6 6 0 0 1 5.14-9.1zm1 17v39h-2v-39a1 1 0 0 0 -.55-.89c-2.8-1.4-5.45-3.4-5.45-4.11v-1.81c1.15 1.42 2.63 2.81 4 2.81a1 1 0 0 0 .86-.49l2.14-3.57 2.14 3.57a1 1 0 0 0 .86.49c1.37 0 2.85-1.39 4-2.81v1.81c0 .71-2.65 2.7-5.45 4.11a1 1 0 0 0 -.55.89zm2 39v-2.43l3.33-1.15 3.67-1.27a1 1 0 0 0 .45.7 1 1 0 0 0 1 0l1-.51 1.6 4a1 1 0 0 0 1.64.34l.29-.29.59.59zm16-.41-2.29-2.29a1 1 0 0 0 -1.34-.07l-1.44-3.6a1 1 0 0 0 -1.38-.52l-.55.28v-9.39a4.12 4.12 0 0 1 1.18-3.24 4.89 4.89 0 0 1 3.05-1l-.23 1.04a1 1 0 0 0 .27.9l1.32 1.3h-.59a1 1 0 0 0 0 2h4a1 1 0 0 0 0-2h-.59l1.29-1.29a1 1 0 0 0 .27-.9l-.21-1.06a4.9 4.9 0 0 1 3.05 1 4.12 4.12 0 0 1 1.19 3.25v9.38l-.55-.28a1 1 0 0 0 -1.38.52l-1.44 3.6a1 1 0 0 0 -1.34.07zm2.41.41.59-.59.29.29a1 1 0 0 0 1.64-.34l1.6-4 1 .51a1 1 0 0 0 1.47-.72l14 4.85z"/></g></svg>