<svg height="512" viewBox="0 0 64 64" width="512" xmlns="http://www.w3.org/2000/svg"><g id="Lineal_color" data-name="Lineal color"><path d="m20 29 6-11-1-3 1-3 5-9 7 10v5l2 2 4 9z" fill="#333a3a"/><ellipse cx="32" cy="32" fill="#7b4aa9" rx="29" ry="5"/><path d="m52 61h-40s0-3 1-4 1-2 3-4 0-1-1-3 1-4 3-5-2-4 0-7a12 12 0 0 1 4-4h20a12 12 0 0 1 4 4c2 3-2 6 0 7s4 3 3 5-3 1-1 3 2 3 3 4 1 4 1 4z" fill="#252a2a"/><path d="m29 55-21 4-5-3v5h58v-5l-5 3-21-4z" fill="#4e5454"/><path d="m28 48 1 8 3 2 3-2 1-8z" fill="#fae0bb"/><path d="m22 34c0-1.1 4.48-2 10-2s10 .9 10 2v3c0 7.73-4.48 14-10 14s-10-6.27-10-14z" fill="#fcedd8"/><path d="m30 38a1 1 0 0 1 -.9-.55c-.7-1.45-3.1-1.45-3.1-1.45a1 1 0 0 1 0-2c.15 0 3.63 0 4.89 2.55a1 1 0 0 1 -.89 1.45z" fill="#596061"/><path d="m32 46a1 1 0 0 1 -.71-.29 13.33 13.33 0 0 1 -2.19-3.26c-1.22-2.45.83-5.65 1.06-6a1 1 0 0 1 1.67 1.11c-.43.66-1.54 2.8-.94 4a14.27 14.27 0 0 0 1 1.75l1.24-1.86a1 1 0 1 1 1.66 1.11l-2 3a1 1 0 0 1 -.73.44z" fill="#eebf90"/><path d="m28 38a1 1 0 0 1 -.71-.29 1 1 0 0 1 -.29-.71 1 1 0 0 1 .08-.38 1.15 1.15 0 0 1 .21-.33 1 1 0 1 1 .71 1.71z" fill="#333a3a"/><path d="m34 38a1 1 0 0 1 -.89-1.45c1.26-2.55 4.74-2.55 4.89-2.55a1 1 0 0 1 0 2s-2.42.06-3.11 1.45a1 1 0 0 1 -.89.55z" fill="#596061"/><path d="m36 38a1 1 0 1 1 .71-.29 1 1 0 0 1 -.16.12.56.56 0 0 1 -.17.09.62.62 0 0 1 -.19.06z" fill="#333a3a"/><path d="m34 47h-4a3 3 0 0 1 -3-3 1 1 0 0 1 2 0 1 1 0 0 0 1 1h4a1 1 0 0 0 1-1 1 1 0 0 1 2 0 3 3 0 0 1 -3 3z" fill="#d33028"/><path d="m10 30h4v31h-4z" fill="#ae7537"/><path d="m9 27-1 7h8l-1-7z" fill="#be905e"/><path d="m9 23h6v4h-6z" fill="#693300"/><path d="m9 23-6-13h3l-3-5 4 1v-3l3 3 2-3 2 3 3-3v3l4-1-3 5h3l-6 13z" fill="#be905e"/><path d="m61.49 55.13a1 1 0 0 0 -1 0l-4.67 2.8-3.48-.66a3.26 3.26 0 0 0 -.63-1 5 5 0 0 1 -.79-1.11 12.67 12.67 0 0 0 -2.21-2.89l-.26-.27a3.8 3.8 0 0 0 1.44-1.58c1.27-2.54-.9-5.07-3.47-6.31a4.47 4.47 0 0 1 .39-1.25c.55-1.35 1.38-3.4 0-5.45l-.1-.13c10.15-.97 15.29-2.76 15.29-5.28 0-3.44-9.66-4.9-18-5.53l-3.06-6.87a1 1 0 0 0 -.21-.3l-1.73-1.71v-4.59a1 1 0 0 0 -.18-.57l-7-10a1 1 0 0 0 -1.69.09l-5 9a1 1 0 0 0 -.07.17l-1 3a1 1 0 0 0 0 .63l.86 2.59-4.65 8.52q-2.21.17-4.26.4v-3.61l5.91-12.8a1 1 0 0 0 -.92-1.42h-1.23l2.09-3.49a1 1 0 0 0 -1.1-1.51l-2.76.72v-1.72a1 1 0 0 0 -1.71-.71l-2.13 2.14-1.32-2a1 1 0 0 0 -1.66 0l-1.32 2-2.15-2.14a1 1 0 0 0 -1.71.71v1.72l-2.76-.72a1 1 0 0 0 -1.1 1.48l2.09 3.52h-1.23a1 1 0 0 0 -.91 1.42l5.91 12.8v3.71l-.18 1.29c-3.95.99-5.82 2.2-5.82 3.78 0 1.1.76 2.7 7 4.07v21.72l-.81.15-4.67-2.8a1 1 0 0 0 -1.52.86v5a1 1 0 0 0 1 1h58a1 1 0 0 0 1-1v-5a1 1 0 0 0 -.51-.87zm-54.43-21.62c-2.69-.82-3.06-1.51-3.06-1.51s.38-.78 3.51-1.67zm-3.06 26.49v-2.23l3.49 2.09a1 1 0 0 0 .51.14zm5 0h-1 .18l.82-.17zm38.81-12.29a1.64 1.64 0 0 1 .29 1.85 2 2 0 0 1 -1 .93 1.62 1.62 0 0 0 -1 1.17c-.1.75.45 1.38 1.14 2.06a10.77 10.77 0 0 1 1.9 2.48l.34.56-13.25-2.54.46-3.67c3.72-2.41 6.31-7.55 6.31-13.55v-1a13.85 13.85 0 0 1 2.17 2.56c.72 1.09.39 2.13-.2 3.59-.46 1.15-1.17 2.88.59 3.75a6.28 6.28 0 0 1 2.25 1.81zm-15.81 2.29c-5 0-9-5.83-9-13v-2.77c.7-.46 3.84-1.23 9-1.23s8.3.77 9 1.23v2.77c0 7.17-4 13-9 13zm2.54 1.58-.48 3.84-2.06 1.38-2.06-1.38-.48-3.84a7.89 7.89 0 0 0 5.09 0zm-17.36-8.69a3.73 3.73 0 0 1 .37 1.21 8.67 8.67 0 0 0 -2.55 1.9v-9l2.27.25-.1.14c-1.37 2.1-.54 4.15.01 5.5zm-1.63 9.11-.26.26-.29.3v-1a4.28 4.28 0 0 0 .55.44zm1.16 1.68c.68-.68 1.24-1.31 1.14-2.06a1.62 1.62 0 0 0 -1-1.17 2 2 0 0 1 -1-.93 1.64 1.64 0 0 1 .29-1.85 6.28 6.28 0 0 1 2.26-1.81c1.75-.88 1.05-2.61.59-3.75-.59-1.46-.93-2.5-.2-3.59a13.86 13.86 0 0 1 2.21-2.52v1c0 6 2.59 11.14 6.31 13.55l.46 3.67-12.77 2.43v-.79a10.55 10.55 0 0 1 1.71-2.15zm10.17-35.2a1 1 0 0 0 .07-.8l-.9-2.68.87-2.6 4.18-7.52 5.9 8.44v4.68a1 1 0 0 0 .29.71l1.87 1.87 2.55 5.74c-5.09-.32-9.26-.32-9.71-.32-3.23 0-6.38.09-9.37.27zm-10.61 10.33a143 143 0 0 1 15.73-.81c17.8 0 27.55 2.58 28 4-.23.73-4.15 2.52-14.73 3.47a11.92 11.92 0 0 0 -2.5-2.15c-1.31-2.14-8.43-2.32-10.77-2.32s-9.46.18-10.77 2.29a11.92 11.92 0 0 0 -2.5 2.15q-2-.18-3.73-.4h1a1 1 0 0 0 1-1.14zm-11.71-17.81h1.44a1 1 0 0 0 .86-1.51l-1.76-2.93 1.66.44a1 1 0 0 0 1.24-1v-.59l1.29 1.3a1 1 0 0 0 1.54-.15l1.17-1.76 1.17 1.75a1 1 0 0 0 .73.45 1 1 0 0 0 .81-.29l1.29-1.3v.59a1 1 0 0 0 1.24 1l1.66-.41-1.76 2.9a1 1 0 0 0 .86 1.51h1.44l-5.08 11h-4.72zm9.44 13v2h-4v-2zm-1 36h-2v-25h2zm-3.85-27 .71-5h4.27l.71 5zm5.85 27v-1.32l13-2.48a1 1 0 0 0 .41.63l3 2a1 1 0 0 0 1.11 0l3-2a1 1 0 0 0 .48-.63l19.81 3.8h.19zm45 0h-4a1 1 0 0 0 .51-.14l3.49-2.09z"/><path d="m36.61 36.23a6.11 6.11 0 0 1 1.39-.23 1 1 0 0 0 0-2c-.15 0-3.63 0-4.89 2.55a1 1 0 0 0 1.79.89 1.69 1.69 0 0 1 .15-.21.94.94 0 0 0 .95.77h.19a.62.62 0 0 0 .19-.06.56.56 0 0 0 .17-.09 1 1 0 0 0 .16-.12 1 1 0 0 0 0-1.42z"/><path d="m36 43a1 1 0 0 0 -1 1 1 1 0 0 1 -1 1h-.8l1.63-2.45a1 1 0 1 0 -1.66-1.11l-1.24 1.86a14.27 14.27 0 0 1 -1-1.75c-.6-1.2.5-3.34.94-4a1 1 0 0 0 -.28-1.39 1 1 0 0 0 -.93-.07c-1.47-2.09-4.52-2.09-4.66-2.09a1 1 0 0 0 0 2 6 6 0 0 1 1.39.23.86.86 0 0 0 -.1.06 1.15 1.15 0 0 0 -.21.33 1 1 0 0 0 -.08.38 1 1 0 0 0 .29.71 1 1 0 0 0 .71.29.94.94 0 0 0 1-.77 1.72 1.72 0 0 1 .15.21 1 1 0 0 0 .32.36c-.56 1.24-1.1 3.09-.32 4.64a15.4 15.4 0 0 0 1.54 2.56h-.69a1 1 0 0 1 -1-1 1 1 0 0 0 -2 0 3 3 0 0 0 3 3h4a3 3 0 0 0 3-3 1 1 0 0 0 -1-1z"/></g></svg>