<svg id="Layer_1" enable-background="new 0 0 64 64" height="512" viewBox="0 0 64 64" width="512" xmlns="http://www.w3.org/2000/svg"><path d="m36 38.9c4.4 2.2 6.3 7.6 4 12-2.2 4.4-7.6 6.3-12 4-4.4-2.2-6.3-7.6-4-12 1.5-3.1 4.6-5 8-5 1.4.1 2.8.4 4 1z" fill="#a9dae6"/><path d="m39.3 41.7c-.4-.3-.8-.6-1.3-.8-4.4-2.2-9.8-.4-12.1 4-1.5 3-1.2 6.6.8 9.3-2.3-1.6-3.7-4.3-3.7-7.2 0-5 4-9 9-9 2.9 0 5.6 1.4 7.3 3.7z" fill="#cbe9f0"/><path d="m34.7 41.6c3 1.5 4.2 5.1 2.7 8-1.5 3-5.1 4.2-8 2.7-3-1.5-4.2-5.1-2.7-8 1-2 3.1-3.3 5.4-3.3.8 0 1.7.2 2.6.6z" fill="#7fa3ad"/><path d="m41 47c0 5-4 9-9 9-2.6 0-5.1-1.1-6.8-3.1-.6-.6-1-1.4-1.4-2.2 1.2.5 2.4.8 3.7.8 5 0 9-4 9-9 0-1.3-.3-2.5-.8-3.7.1 0 .2.1.3.1 3.1 1.6 5 4.7 5 8.1z" fill="#f1ffff"/><path d="m15.1 36.7 3.2 1.1-.1.5c-.3 1.4-1.7 2.4-3.1 2.1-.1 0-.1 0-.2-.1l-.6-.2-1.3-.4-6.7 3.3 5.2 5.2 1.8 1.8c.5.5.6 1.3.3 2 0 .1-.1.2-.1.2-.6.8-1.7 1-2.5.5 0 0-.1 0-.1-.1l-5.9-4.2v2.7l3.1 3.9.8 1c.4.6.3 1.4-.2 1.8 0 0 0 0-.1.1-.3 0-.5.1-.8.1s-.7-.1-.9-.4l-5.9-5.9v-10l5.1-1.9.3-.1 2.8-1.8 3.3-2.2z" fill="#f5dbd0"/><path d="m16.1 27.6 1.4-2 .5.8c.5.8.6 1.9.2 2.8l-3.1 7.4-2.8-.9-3.3 2.2z" fill="#f5dbd0"/><path d="m17.6 26.3.1.1c.5.8.6 1.9.2 2.8l-3.1 7.4-1.6-.5c1.6-3.3 3.5-6.3 4.4-9.8z" fill="#f4c5b5"/><path d="m7.4 42.4 5.3-2.7 1.3.4.6.2c1.4.4 2.9-.4 3.3-1.8 0-.1 0-.1.1-.2l.1-.5-.7-.2c-.7.8-1.7 1.1-2.7.8l-.6-.2-1.3-.4-5 2.5c-.7.3-.9 1.2-.6 1.8 0 .1.1.2.2.3z" fill="#f4c5b5"/><path d="m4.8 46.4c-.5-.1 0 2 0 2l5.8 4.2s.1.1.1.1c.8.5 1.9.3 2.5-.5.1-.1.2-.3.3-.5.2-.5.1-1.1-.3-1.5-.4.5-.9.8-1.5.8-.4-.1-.8-.2-1.1-.4 0 0-3.8-3.6-5.8-4.2z" fill="#f4c5b5"/><path d="m38.8 52.8c-3.2 3.8-8.9 4.2-12.7 1-.4-.3-.7-.6-1-1l-.1.2v10h14v-10z" fill="#915519"/><path d="m39 53v10h-7v-7c2.6 0 5.1-1.1 6.8-3.2z" fill="#6d4013"/><path d="m28 32.2v2.8h-6v-12c0 4 2.4 7.6 6 9.2z" fill="#e83b3b"/><path d="m42 23v12h-6v-2.8c3.6-1.6 6-5.2 6-9.2z" fill="#e83b3b"/><path d="m22 35v9h-9l1.3-3.9.6.2c1.4.4 2.9-.4 3.3-1.8 0-.1 0-.1.1-.2l.1-.5-3.2-1.1 3.1-7.4c.4-.9.3-1.9-.2-2.8l-.5-.8-1.4 2c1.1-6.5 3.3-10.9 5.8-13.8v.1z" fill="#75717a"/><path d="m32 8v6s-10 4.8-10 8v-8l-.1-.1c4.6-5.5 10.1-5.9 10.1-5.9z" fill="#75717a"/><path d="m42.1 13.9-.1.1v8c0-3.2-10-8-10-8v-6s5.5.4 10.1 5.9z" fill="#75717a"/><path d="m51 44h-9v-30l.1-.1c2.5 2.9 4.7 7.3 5.8 13.8l-1.4-2-.5.8c-.5.8-.6 1.9-.2 2.8l3.1 7.4-3.2 1.1.1.5c.3 1.4 1.7 2.4 3.1 2.1.1 0 .1 0 .2-.1l.5-.2z" fill="#75717a"/><path d="m51 44h-.6c-3.5 0-6.3-2.8-6.3-6.3v-21.2c1.9 3.2 3.2 6.7 3.8 10.4-.1.1-.1.2-.1.4l-1.1-1.6-.7.8c-.5.8-.6 1.9-.2 2.8l3.1 7.4-3.2 1.1.1.5c.3 1.4 1.7 2.4 3.1 2.1h.2l.3-.1c.1 0 .2.1.3.1z" fill="#58555c"/><path d="m24 14.5c1.7-1.8 3.7-3.2 6-4v2.2c-2.1 1-4.1 2.3-6 3.6z" fill="#58555c"/><path d="m40 16.4c-1.9-1.4-3.9-2.6-6-3.6v-2.2c2.3.8 4.3 2.2 6 4z" fill="#58555c"/><path d="m51 44 1.3 4h-9.3l.1.4c.4 1.9 2 3.4 3.9 3.6l-2 6 2 5h-8v-10l-.2-.2c3.2-3.8 2.8-9.4-1-12.7-.6-.5-1.2-.9-1.9-1.2v-3.9h6v9z" fill="#8165a9"/><path d="m47 52-2 6 2 5h-6.7c1.2-4.1 1.8-8.3 1.7-12.5 0-6.5-1.2-12.2-3-15.5h3v9h9l1.3 4h-9.3l.1.4c.4 1.9 2 3.4 3.9 3.6z" fill="#714ba1"/><path d="m28 35v3.9c-4.4 2.2-6.3 7.6-4.1 12 .3.7.7 1.3 1.2 1.9l-.1.2v10h-8l2-5-3-6h1c1.9-.2 3.5-1.7 3.9-3.6l.1-.4h-9.3l1.3-4h9v-9z" fill="#8165a9"/><path d="m48.9 36.7 2.8-.9 3.3 2.2 2.8 1.8.3.1 5.1 1.9v10l-5.9 5.9c-.2.2-.6.4-.9.4-.2 0-.5-.1-.7-.2-.6-.4-.7-1.2-.4-1.8 0 0 0 0 .1-.1l.8-1 3.1-3.9v-2.7l-5.8 4.2s-.1.1-.1.1c-.8.5-1.9.3-2.5-.5-.1-.1-.2-.3-.3-.5-.2-.6 0-1.3.4-1.7l1.8-1.8 5.2-5.2-7-3.3-1.3.4-.5.2c-1.4.4-2.9-.4-3.3-1.8 0-.1 0-.1-.1-.2l-.1-.5z" fill="#f5dbd0"/><path d="m46 7 11.9 32.8-.3-.1-2.8-1.8-7-10.2c-1.1-6.5-3.3-10.9-5.8-13.8-4.5-5.5-10-5.9-10-5.9s-5.5.4-10.1 5.9c-2.5 2.9-4.7 7.3-5.8 13.8l-7 10.2-2.8 1.8-.3.1 12-32.8s6-6 14-6 14 6 14 6z" fill="#714ba1"/><path d="m44.5 5.7c-2.9-1.7-6.2-2.6-9.5-2.7-8 0-14 6-14 6l-8.9 24.4-3 4.5-2.8 1.8-.3.1 12-32.8s6-6 14-6c5.6 0 10.2 2.9 12.5 4.7z" fill="#aa93c7"/><path d="m57.9 39.8-.3-.1-2.8-1.8-1.7-2.5-9.1-25.4s-6-6-14-6c-5.8 0-10.5 3.1-12.7 4.8l.7-1.8s6-6 14-6 14 6 14 6z" fill="#553879"/><path d="m51 44-1.3-3.9 1.3-.4 6.7 3.4-5.2 5.1-.2-.2z" fill="#f4c5b5"/><path d="m47.9 27.6 7 10.2-3.3-2.2-2.8.9-3.1-7.4c-.4-.9-.3-1.9.2-2.8l.5-.8z" fill="#f5dbd0"/><path d="m52.5 48.2-1.8 1.8c-.4.5-.6 1.1-.4 1.7l-.3.3h-3c-1.9-.2-3.5-1.7-3.9-3.6l-.1-.4h9.3z" fill="#f4c5b5"/><path d="m36 32.2c-2.5 1.1-5.5 1.1-8 0-3.6-1.6-6-5.2-6-9.2v-1c0-3.2 10-8 10-8s10 4.8 10 8v1c0 4-2.4 7.6-6 9.2z" fill="#f5dbd0"/><path d="m42 22v1c0 4-2.4 7.6-6 9.2-.8.3-1.6.6-2.4.7 3.3-1.7 5.4-5.1 5.4-8.9v-1c0-2.7-7.3-6.6-9.4-7.7 1.4-.8 2.4-1.3 2.4-1.3s10 4.8 10 8z" fill="#f4c5b5"/><path d="m36 35v3.9c-2.5-1.3-5.5-1.3-8 0v-6.8c2.5 1.1 5.5 1.1 8 0z" fill="#f5dbd0"/><g fill="#f4c5b5"><path d="m36 32.2v6.8c-.9-.5-2-.8-3-.9v-1c0-.7-.6-1.3-1.3-1.3-.1 0-.2 0-.3 0-.8.1-1.6.2-2.4.2-.3 0-.7 0-1-.1v-3.8c2.5 1.2 5.5 1.2 8 .1z"/><path d="m21 48-.1.4c-.4 1.9-2 3.4-3.9 3.6h-3-.4c.3-.7.2-1.4-.3-2l-1.8-1.8.2-.2z"/><path d="m46.1 26.3-.1.2c-.5.8-.6 1.9-.2 2.8l3.1 7.4 1.6-.5c-1.5-3.4-3.5-6.4-4.4-9.9z"/><path d="m56.3 42.4-5.3-2.7-1.3.4-.5.2c-1.4.4-2.9-.4-3.3-1.8 0-.1 0-.1-.1-.2l-.1-.5.7-.2c.7.8 1.7 1.1 2.7.8l.5-.2 1.3-.4 5 2.5c.7.3.9 1.2.6 1.8 0 .1-.1.2-.2.3z"/><path d="m59 46.4c.5-.1 0 2 0 2l-5.8 4.2s-.1.1-.1.1c-.8.5-1.9.3-2.5-.5-.1-.1-.2-.3-.3-.5-.2-.5-.1-1.1.3-1.5.4.5.9.8 1.5.8.4-.1.8-.2 1.1-.4 0 0 3.8-3.6 5.8-4.2z"/><path d="m13 44-1.3 4-.2.2-5.2-5.1 6.7-3.4 1.3.4z"/><path d="m10.8 52.6s.1.1.1.1l-2.8 2.2v.1l-3.1-3.9v-2.7z"/><path d="m53.2 52.6s-.1.1-.1.1l2.8 2.2.1.1 3.1-3.9v-2.7z"/></g><path d="m29.3 41.8h-.9c-.8 0-1.5.7-1.5 1.5s.7 1.5 1.5 1.5h.9c.8 0 1.5-.7 1.5-1.5s-.7-1.5-1.5-1.5z" fill="#fff"/><path d="m27.8 45.9c-.6 0-1 .4-1 1s.4 1 1 1 1-.4 1-1-.5-1-1-1z" fill="#fff"/><path d="m22 6.6c-.5-.3-1.1-.1-1.4.4-.4.5-.7 1.1-.9 1.8-.1.5.2 1.1.7 1.2s1.1-.2 1.2-.7c.2-.5.4-.9.8-1.3.2-.5.1-1.1-.4-1.4z" fill="#fff"/><path d="m19.8 11.2c-.6 0-1 .4-1 1s.4 1 1 1 1-.4 1-1-.4-1-1-1z" fill="#fff"/><path d="m26 20h4v2h-4z" fill="#333"/><path d="m63.4 40.8-4.7-1.8-11.8-32.3c0-.1-.1-.3-.2-.4-.2-.3-6.4-6.3-14.7-6.3s-14.5 6-14.7 6.3c-.1.1-.2.2-.2.4l-11.8 32.3-4.6 1.7c-.4.2-.7.6-.7 1v10c0 .3.1.5.3.7l5.9 5.9c.9.9 2.3.9 3.2 0 .8-.8.9-2.1.2-3l-.2-.2 1.6-1.3c1.1.3 2.3 0 3-.8h1.3l2.5 5-1.8 4.6c-.2.5 0 1.1.6 1.3.1 0 .2.1.4.1h30c.6 0 1-.4 1-1 0-.1 0-.3-.1-.4l-1.8-4.6 1.7-5h2.2c.8.8 1.9 1.2 3 .8l1.6 1.3-.2.2c-.8 1-.6 2.4.4 3.2.9.7 2.2.6 3-.2l5.9-5.9c.2-.2.3-.4.3-.7v-10c0-.4-.3-.8-.6-.9zm-44.5-33.2c.9-.9 6.3-5.6 13.1-5.6s12.2 4.7 13.1 5.6l10.9 29.8-.3-.2-6.8-9.9c-3.3-19-16.7-20.3-16.8-20.3s-.1 0-.1 0 0 0-.1 0-13.5 1.3-16.8 20.2l-6.8 9.9-.3.3zm25.8 30.3.1.5c.4 1.9 2.3 3.2 4.2 2.9l.6 1.7h-6.6v-26.3c1.5 2.5 2.6 5.1 3.3 7.9-.2.1-.4.2-.6.4l-.5.8c-.7 1.1-.9 2.5-.3 3.7l2.7 6.4-2.2.7c-.5.3-.8.8-.7 1.3zm2-9.1c-.2-.4-.2-.9-.1-1.3l.4.5v.1h.1l4.5 6.6c-.1 0-.2 0-.2 0l-1.9.6zm-9.7 5.2v-1.2c1.6-.8 3-2 4-3.5v4.7zm4 2v6.7c-.9-1.8-2.3-3.3-4-4.3v-2.4zm-9-4c-5 0-9-4-9-9v-1c0-1.5 4.6-4.7 9-6.9 4.4 2.2 9 5.3 9 6.9v1c0 5-4 9-9 9zm3 1.6v3.9c-2-.6-4-.6-6 0v-3.9c2 .5 4 .5 6 0zm-12 .4v-4.7c1 1.5 2.4 2.7 4 3.5v1.2zm4 2v2.4c-1.7 1-3.1 2.5-4 4.3v-6.7zm-4-17.4v-4.5c2.1-2.4 4.9-4.1 8-4.9v4.2c-2.9 1.3-5.6 3.1-8 5.2zm10-5.2v-4.2c3.1.8 5.9 2.5 8 4.9v4.5c-2.4-2.1-5.1-3.9-8-5.2zm-14.4 23.4-2.1-.8 2.6-6.4c.6-1.2.4-2.6-.3-3.7l-.5-.8c-.1-.2-.3-.3-.6-.4.7-2.8 1.8-5.5 3.3-7.9v26.2h-6.6l.6-1.7c2 .4 3.8-.9 4.2-2.9l.1-.5c.1-.5-.2-1-.7-1.1zm-4-1.4-1.9-.6c-.1 0-.2 0-.2 0l4.5-6.6h.1v-.1l.4-.5c.1.4.1.9-.1 1.3zm-6.4 18.2-2.2-2.9v-.4l3.3 2.4zm4.5-2c-.3.4-.8.5-1.2.2l-5.8-4.2c-.4-.3-1.1-.2-1.4.2-.2.2-.3.4-.3.6v2.7c0 .2.1.4.2.6l3.8 4.9c.1.1.1.3 0 .4s-.3.1-.3 0l-5.7-5.7v-8.9l4.7-1.8c.1 0 .1-.1.2-.1l5.6-3.7 4.7 1.6c-.3.8-1.2 1.1-2 .9l-1.9-.5c-.2-.1-.5 0-.7.1l-6.7 3.3c-.5.2-.7.8-.4 1.3 0 .1.1.2.2.3l7 7c.1.2.2.6 0 .8zm-1.5-5.1-3.2-3.2 5-2.5zm3.6 4.5c-.1-.6-.3-1.2-.8-1.7l-.3-.3h6c-.5 1.1-1.5 1.8-2.7 2zm9.2 2v9h-5.5l1.5-3.6c.1-.3.1-.6 0-.8l-2.3-4.6c2.2-.4 3.9-2.1 4.3-4.3l.1-.4c.1-.5-.2-1.1-.8-1.2-.1 0-.1 0-.2 0h-7.9l.7-2h8.1.2c-.1.7-.2 1.4-.2 2 0 2.1.7 4.2 2 5.9zm14 9h-12v-2h12zm0-4h-12v-3c3.5 2.7 8.5 2.7 12 0zm-6-3c-4.4 0-8-3.6-8-8s3.6-8 8-8 8 3.6 8 8-3.6 8-8 8zm18-5.7c-.5.5-.7 1.1-.8 1.7h-2.1c-1.2-.1-2.2-.9-2.8-2h6zm-7-2.3c-.6 0-1 .4-1 1v.2l.1.4c.4 1.9 1.8 3.5 3.6 4.1l-1.7 5c-.1.2-.1.5 0 .7l1.5 3.6h-5.5v-9c1.3-1.7 2-3.8 2-6 0-.7-.1-1.4-.2-2h.2 8.2l.7 2zm11.7 5.7 3.3-2.4v.4l-2.2 2.9zm7.3-1.4-5.6 5.6c-.1.1-.2.1-.3 0s-.2-.2-.1-.4l3.8-4.9c.1-.2.2-.4.2-.6v-2.7c0-.6-.4-1-1-1-.2 0-.4.1-.6.2l-5.8 4.2c-.4.3-.9.2-1.2-.2-.2-.3-.2-.7.1-.9l7-7c.4-.4.4-1 0-1.4-.1-.1-.2-.1-.3-.2l-6.7-3.3c-.2-.1-.5-.1-.7-.1l-1.9.5c-.8.2-1.6-.2-2-.9l4.7-1.6 5.6 3.7c.1 0 .1.1.2.1l4.7 1.8v9.1zm-11.1-10.5 5 2.5-3.1 3.1z" fill="#333"/><path d="m34 20h4v2h-4z" fill="#333"/></svg>