<?xml version="1.0" standalone="no"?>
<svg xmlns="http://www.w3.org/2000/svg" version="1.1" xmlns:xlink="http://www.w3.org/1999/xlink" width="512" height="512" x="0" y="0" viewBox="0 0 340 340" style="enable-background:new 0 0 512 512" xml:space="preserve" class=""><g><linearGradient id="b" x1="207.288" x2="244.299" y1="256.79" y2="450.984" gradientUnits="userSpaceOnUse"><stop stop-opacity="1" stop-color="#755757" offset="0"/><stop stop-opacity="1" stop-color="#955656" offset="0.2785493578240026"/></linearGradient><linearGradient id="a" x1="153.361" x2="258.364" y1="35.69" y2="98.025" gradientUnits="userSpaceOnUse"><stop offset="0" stop-color="#a6a4d5"/><stop offset="1" stop-color="#606b93"/></linearGradient><linearGradient id="c" x1="184.032" x2="125.141" y1="380.188" y2="69.921" gradientUnits="userSpaceOnUse"><stop stop-opacity="1" stop-color="#f48282" offset="0"/><stop stop-opacity="1" stop-color="#a46a5f" offset="0"/></linearGradient><linearGradient id="d" x1="45.226" x2="86.364" y1="-4.425" y2="55.067" gradientUnits="userSpaceOnUse"><stop offset="0" stop-color="#8d8bbc"/><stop offset="1" stop-color="#47527a"/></linearGradient><linearGradient id="e" x1="322.06" x2="217.772" y1="146.929" y2="-28.465" gradientUnits="userSpaceOnUse"><stop offset="0" stop-color="#ffcc87"/><stop offset="1" stop-color="#ffffdc"/></linearGradient><linearGradient xlink:href="#a" id="f" x1="240.57" x2="308.905" y1="44.863" y2="129.865"/><path fill="url(#b)" d="M137.733 255.512s30.438 29.148 31.659 76.623h50.747l35.327-18.994 37.123-8.132-27.223-77.074s-17.324-10.253-37.123-13.789-87.328-3.535-93.338-3.182-8.486 20.86-8.486 20.86z" opacity="1" data-original="url(#b)" class=""/><path fill="#825858" d="m267.055 232.716-1.689-4.781s-17.324-10.253-37.123-13.789-87.328-3.535-93.338-3.182-8.486 20.86-8.486 20.86l11.314 23.688a90.787 90.787 0 0 1 10.129 12.35c.221-2.388.446-6.012.479-11.046 0 0 15.882 8.992 37.97-4.887 0 0 41.245 8.015 68.611-9.969a107.23 107.23 0 0 0 12.133-9.244z" opacity="1" data-original="#bf5f5f" class=""/><path fill="url(#a)" d="M234.389 57.469a16.135 16.135 0 0 0-11.268-1.983 16.884 16.884 0 0 0-13.6 15.826q-.018.456-.015.931s-8.765-1.847-11.432 10.464a11.184 11.184 0 0 1-4.6 5.113.552.552 0 0 0 .252 1.043h64.468s2.049-28.316-23.805-31.394z" opacity="1" data-original="url(#a)" class=""/><path fill="url(#c)" d="m61.24 7.865 33.812 37.554a12.067 12.067 0 0 0 10.97 3.688l2.982-.53a19.551 19.551 0 0 1 13.864 2.723l22.195 14.018 38.007-14.681c.284 10.745-2.795 22.429-9.031 30.858 0 0 10.646 21.43 14.067 41.024 0 0 18.349-3.421 29.234 4.976 0 0 14.617 9.952 26.124 8.4 0 0 1.244 9.952-6.531 15.239a65.509 65.509 0 0 1 14.25 9.455 31.908 31.908 0 0 0 14.461 7.776 21.046 21.046 0 0 0 7.987.422s-1.555 13.136-13.684 16.557c0 0 17.416 29.856 30.79 60.335 0 0 8.1 19.219 14.323 31.883a69.412 69.412 0 0 0 4.816 8.226c2.464 3.648 6.263 10.273 6.052 16.182a32.7 32.7 0 0 0 14.928 0s-3.4 20.426-23.189 26.435a20.255 20.255 0 0 1-9.718.412c-12.051-2.32-49.062-7.973-77.81 3.321 0 0-22.607-5.652-36.574-13.992a6.3 6.3 0 0 1-2.816-3.624 36.567 36.567 0 0 1 3-28.1l4.081 13.206a12.608 12.608 0 0 0 6.03 7.387 22.33 22.33 0 0 0 11.348 2.732s-5.6-8.086-6.22-16.172c0 0-2.177-11.818 9.33-23.947 0 0-1.072 11.258 2.009 19.092a12 12 0 0 0 1.862 3.147c1.8 2.226 5.713 6.526 10.435 8.55 0 0-7.775-22.081 11.507-34.21l.754 14.819a12.681 12.681 0 0 0 2.158 6.459l4.126 6.106a5.055 5.055 0 0 0 4.642 2.2l21.286-1.91-1.555-21.148a188.06 188.06 0 0 0-23.325-41.674s-28.454 18.188-71.981 4.158c0 0 5.036 10.432-6.116 12.95 0 0-14.9 4.858-26.256-10.625a.5.5 0 0 0-.881.419c2.689 9.521 10.075 39.331 5.913 66.685 0 0 3.957 2.518 10.792 1.8a37.658 37.658 0 0 1-10.409 20.717 15.186 15.186 0 0 1-12.653 4.1c-15.654-2.057-57.877-6.593-88.047-.4a16.272 16.272 0 0 1-11.517-1.882A80.453 80.453 0 0 1 10.2 311.428a7.146 7.146 0 0 1-1.532-3.368 58.58 58.58 0 0 1 7.6-39.388s1.518 14.877 3.438 25.385a6.659 6.659 0 0 0 2.711 4.227l6.442 4.563s-4.317-22.663 14.029-37.412c0 0-2.845 15.807-.237 28.157a6.61 6.61 0 0 0 2.448 3.85l6.063 4.685s-.719-23.742 14.749-32.735l.664 23.892a6.687 6.687 0 0 0 1.208 3.654l2.17 3.1a4.911 4.911 0 0 0 4.675 2.05l26.537-3.56s3.957-13.67-5.4-32.736c0 0-17.627-30.577-14.389-55.039a26.249 26.249 0 0 1-15.109.72s1.209-21.16 13.325-39.649a62.429 62.429 0 0 0 9.284-21.921 58 58 0 0 0 .4-21.708 39.483 39.483 0 0 0-14.592-23.719L47.929 83.409s6.116-14.389 23.023-12.95l-9.238-6.814a32.677 32.677 0 0 1-12.242-34.937C51.23 22.372 54.782 15.3 61.24 7.865z" opacity="1" data-original="url(#c)" class=""/><path fill="url(#d)" d="M84.482 33.679 61.24 7.865A59.325 59.325 0 0 0 52 21.876c2.843 9.178 10.731 19.581 32.482 11.803z" opacity="1" data-original="url(#d)"/><circle cx="260.667" cy="43.676" r="33.363" fill="url(#e)" opacity="1" data-original="url(#e)" class=""/><path fill="url(#a)" d="M257.227 113.9h74.831s-1.437-5.745-8.413-9.028c0 0 .821-12.516-12.516-12.311 0 0-.821-14.568-14.158-14.568 0 0-12.927-.821-13.542 16.415a12.487 12.487 0 0 0-13.337 1.535s-3.333 2.318-4.9 8.179a15.489 15.489 0 0 1-.964 2.75 12.3 12.3 0 0 1-7.1 6.457.294.294 0 0 0 .099.571z" opacity="1" data-original="url(#a)" class=""/><path fill="#825858" d="M189.863 170.966C175 175.952 164.517 172 159.472 169.1a2.28 2.28 0 0 0-3.416 1.984v2.052a4.519 4.519 0 0 1-5.425 4.442c-10.452-2.235-15.367-8.15-17.676-13.072a1.686 1.686 0 0 0-3.186.524c-1.083 8.188-1.645 13.313-3.8 16.187a4.532 4.532 0 0 1-5.943 1.114c-11.467-6.759-12-19.129-10.543-28.036a.908.908 0 0 0-1.757-.433c-3.655 11.176-5.022 29.339 16.706 42.344a2.946 2.946 0 0 0 3.166-.085c2.4-1.615 6.733-5.5 8.464-13.261 0 0 13.1 8.074 28.926 4.907a2.89 2.89 0 0 0 2.242-3.353l-.645-3.6s14.489 4.555 24.307-8.44a.914.914 0 0 0-1.029-1.408zM216.73 220.719c2.907 9.7 7.934 14.144 11.613 16.167a60.222 60.222 0 0 0 13.877-5.827c-12.23-.855-19.457-6.805-23.32-11.523a1.262 1.262 0 0 0-2.17 1.183zM172.164 65.4a1.228 1.228 0 0 0-1.524-1.69l-16.226 5.829a1.178 1.178 0 0 0-.213 2.039l10.3 7.347a1.03 1.03 0 0 0 1.634-.98l-.549-3.622a30.509 30.509 0 0 0 6.578-8.923z" opacity="1" data-original="#bf5f5f" class=""/><g fill="#423b4f"><path d="M190.48 92.363h67.711a3.5 3.5 0 0 0 0-7h-57.44a12.441 12.441 0 0 0 .641-1.549c.04-.12.073-.242.1-.366 1.792-8.279 6.443-7.922 7.29-7.781A3.5 3.5 0 0 0 213 72.221c0-.263 0-.522.012-.773a13.392 13.392 0 0 1 10.767-12.525 12.331 12.331 0 0 1 3.255-.174 36.894 36.894 0 1 0-2.33-6.986 19.412 19.412 0 0 0-2.247.286 20.477 20.477 0 0 0-16.2 16.722c-4.279.7-9.518 3.909-11.557 12.946-.278.7-1.6 3.646-4.226 3.646a3.5 3.5 0 1 0 0 7zm70.186-78.55a29.863 29.863 0 1 1-27.777 40.807 3.494 3.494 0 0 0-.257-.652 29.864 29.864 0 0 1 28.034-40.155zM165.05 251.546c5.318-1.245 7.689-4.1 8.743-6.284a11.36 11.36 0 0 0 1.084-5.026A106.835 106.835 0 0 0 205.2 244a3.5 3.5 0 0 0-.083-7h-.087a101.505 101.505 0 0 1-33.042-4.914 48.371 48.371 0 0 1-6.175-6.761 3.5 3.5 0 0 0-5.69 4.078 54.647 54.647 0 0 0 7.183 7.886c.433 1.2.941 3.38.173 4.947-.578 1.18-1.967 2.025-4.126 2.513a3.412 3.412 0 0 0-.315.087c-.14.045-14.042 4.354-23.994-11.817a3.5 3.5 0 0 0-6.31 2.911c.018.056 1.554 4.854 3.257 12.391a16.919 16.919 0 0 1-9.832-4.677c-8.39-8.106-8.4-23.64-8.4-23.821a79.381 79.381 0 0 0-3.982-24.765 3.5 3.5 0 0 0-6.58 2.389 73.541 73.541 0 0 1 3.563 22.353c-.006.756-.036 18.643 10.51 28.859 4.709 4.562 10.71 6.87 17.853 6.87.406 0 .816-.011 1.229-.026H140.499c.093 0 .179-.027.269-.038s.191-.009.287-.029c.024 0 .046-.016.07-.021a3.379 3.379 0 0 0 .362-.113c.1-.034.206-.064.3-.107s.2-.107.3-.164.2-.11.3-.176.16-.133.24-.2.185-.153.268-.24.132-.161.2-.243a3.442 3.442 0 0 0 .214-.283 3.17 3.17 0 0 0 .151-.282 3.318 3.318 0 0 0 .155-.317c.038-.095.062-.2.091-.295a3.418 3.418 0 0 0 .1-.364c.017-.094.02-.192.029-.289a3.451 3.451 0 0 0 .025-.408v-.067c0-.087-.027-.168-.036-.253-.012-.1-.01-.2-.031-.3q-.412-2.037-.825-3.885c8.412 5.822 17.338 5.603 22.082 4.117zM327.073 102.731a15.667 15.667 0 0 0-4.01-9.258 14.333 14.333 0 0 0-8.879-4.254c-1.371-6.308-6.024-14.687-17.124-14.731a16.013 16.013 0 0 0-10.954 4.1 19.056 19.056 0 0 0-5.727 11.242 15.55 15.55 0 0 0-12.408 3.321c-.811.6-4.431 3.588-6.159 10.063a11.815 11.815 0 0 1-.735 2.129c-1.111 2.3-3.156 5.05-6.58 5.05a3.5 3.5 0 0 0 0 7h77.561a3.5 3.5 0 0 0 3.395-4.349 18.312 18.312 0 0 0-8.38-10.313zm-60.8 7.664a20.168 20.168 0 0 0 1.11-2.009 19.016 19.016 0 0 0 1.194-3.366c1.174-4.4 3.469-6.172 3.514-6.208a4.18 4.18 0 0 0 .184-.137 8.993 8.993 0 0 1 9.477-1.2 3.5 3.5 0 0 0 5.176-2.946c.175-4.912 1.455-8.505 3.805-10.682a9.044 9.044 0 0 1 6.017-2.365c.075 0 .148.007.222.007 9.648 0 10.589 10.126 10.664 11.265a3.492 3.492 0 0 0 3.548 3.3c3.036-.04 5.315.7 6.776 2.21 2.365 2.449 2.194 6.358 2.194 6.373a3.5 3.5 0 0 0 2 3.4 14.022 14.022 0 0 1 3.553 2.361z" fill="#423b4f" opacity="1" data-original="#423b4f" class=""/><path d="M8.323 314.623A84.214 84.214 0 0 0 29.3 332a19.766 19.766 0 0 0 13.99 2.292c29.428-6.04 70.565-1.7 86.887.443a19.213 19.213 0 0 0 2.5.163 18.673 18.673 0 0 0 13.07-5.241 41.049 41.049 0 0 0 11.434-22.839 3.5 3.5 0 0 0-3.846-3.853 17.14 17.14 0 0 1-6.584-.492 133.142 133.142 0 0 0 .691-27.21 105.091 105.091 0 0 1 18.461 56.963 3.5 3.5 0 0 0 3.5 3.411h.092a3.5 3.5 0 0 0 3.409-3.589c-1-38.99-21.086-63.28-27.686-71.262-.02-.024-.045-.041-.065-.065a3.6 3.6 0 0 0-.285-.281c-.073-.067-.143-.136-.221-.2a3.523 3.523 0 0 0-.307-.2c-.089-.054-.176-.112-.268-.158a3.542 3.542 0 0 0-.332-.134c-.1-.036-.195-.077-.3-.105s-.226-.046-.34-.066-.22-.04-.332-.048-.208 0-.313 0a3.317 3.317 0 0 0-.386.022h-.095c-.07.011-.132.038-.2.053a3.137 3.137 0 0 0-.378.1c-.106.036-.206.081-.307.126a3.382 3.382 0 0 0-.308.152 3.225 3.225 0 0 0-.316.212c-.058.042-.121.072-.177.118-.026.021-.044.048-.068.069a3.579 3.579 0 0 0-.267.27c-.072.079-.147.155-.211.238s-.125.187-.185.283-.123.192-.173.293-.085.206-.125.311a3.279 3.279 0 0 0-.112.315 3.393 3.393 0 0 0-.064.334c-.019.112-.041.222-.049.335s0 .21 0 .316a3.48 3.48 0 0 0 .022.382v.1a130.842 130.842 0 0 1 .388 40.562 3.5 3.5 0 0 0 1.581 3.479 18.818 18.818 0 0 0 8.331 2.401 33.791 33.791 0 0 1-8.53 14.663 11.757 11.757 0 0 1-9.742 3.125c-16.672-2.191-58.738-6.613-89.207-.36a12.762 12.762 0 0 1-9.042-1.473 77.13 77.13 0 0 1-19.208-15.9 7.254 7.254 0 0 1-1.683-3.7 55.828 55.828 0 0 1 2.3-24.954c.7 5.306 1.585 11.348 2.557 16.044a3.5 3.5 0 0 0 1.4 2.147l8.639 6.108a3.5 3.5 0 0 0 5.462-3.511c-.033-.171-2.571-14.292 5.94-26.682-.4 6.4-.315 14.6 1.646 21.463a3.493 3.493 0 0 0 1.226 1.808l7.914 6.116a3.5 3.5 0 0 0 5.637-2.876c-.005-.185-.366-15.925 7.951-25.406l.44 15.876a13.165 13.165 0 0 0 14.912 12.683L101.635 302c.015 0 .03-.007.045-.01h.047l14.661-2.361a3.5 3.5 0 0 0-1.113-6.911l-9.915 1.6c.491-6.038.028-16.864-6.444-30.057a4.098 4.098 0 0 0-.11-.207c-.17-.3-17-29.814-13.952-52.832.007-.051 0-.1.01-.152 0-.026.011-.05.012-.076a51.968 51.968 0 0 1 4.294-15.81 3.5 3.5 0 1 0-6.386-2.863 60.785 60.785 0 0 0-4.612 15.759 23.6 23.6 0 0 1-8.086.573c.819-6.315 3.605-21.415 12.443-34.9a65.83 65.83 0 0 0 9.789-23.156 61.112 61.112 0 0 0 .408-23.024 42.917 42.917 0 0 0-15.868-25.836L52.451 82.515a19.256 19.256 0 0 1 18.205-8.568 3.5 3.5 0 0 0 2.374-6.305l-9.239-6.814a29.331 29.331 0 0 1-11.244-29.92 20.745 20.745 0 0 0 7.624 6.665A23.46 23.46 0 0 0 70.789 39.9a42.259 42.259 0 0 0 12.628-2.175L92.482 47.8a15.493 15.493 0 0 0 14.153 4.757l2.983-.529A16.026 16.026 0 0 1 121 54.255l22.195 14.018a3.5 3.5 0 0 0 3.13.306l33.124-12.791c-.66 8.815-3.6 17.378-8.223 23.625a3.5 3.5 0 0 0-.321 3.639c.1.21 10.459 21.194 13.754 40.069a3.5 3.5 0 0 0 4.089 2.839c.168-.033 16.919-3.049 26.455 4.306.055.042.111.082.168.121.576.393 12.869 8.666 24.549 9.145a12.025 12.025 0 0 1-4.954 8.7 3.5 3.5 0 0 0 .472 6.059 62.349 62.349 0 0 1 13.374 8.864 35.45 35.45 0 0 0 16.057 8.616 28.982 28.982 0 0 0 4.164.647 15.365 15.365 0 0 1-9.71 9.446c-4.913.251-7.344-.873-7.5-.945a3.5 3.5 0 0 0-3.387 6.126c.37.209 3.477 1.859 9.481 1.859h.04c3.92 6.864 18.272 32.424 29.551 58.128.081.194 8.215 19.458 14.406 32.066a72.4 72.4 0 0 0 5.058 8.642c3.6 5.326 5.584 10.465 5.454 14.1a3.5 3.5 0 0 0 2.492 3.478 33.328 33.328 0 0 0 11.1.867c-2.176 5.813-7.444 15.242-19.365 18.865a16.88 16.88 0 0 1-8.049.324c-13.146-2.53-46.782-7.414-75.139 1.848a13.1 13.1 0 0 1-7.764.059c-7.775-2.266-21.944-6.872-31.271-12.712a33.4 33.4 0 0 1-1.03-17.435l2.294 7.42a3.488 3.488 0 0 0 .809 1.38 26.354 26.354 0 0 0 18.817 7.305 3.5 3.5 0 0 0 2.768-5.491c-1.407-2.032-5.158-8.59-5.609-14.448a3.454 3.454 0 0 0-.047-.366c-.014-.073-.93-5.452 2.508-12.511a33.189 33.189 0 0 0 3.073 11.65 3.406 3.406 0 0 0 .232.384c.227.326 5.634 8.012 13 11.17a3.5 3.5 0 0 0 4.684-4.369c-.242-.7-5.144-15.41 5.054-26.049l.448 8.8a13.263 13.263 0 0 0 2.257 6.756l3.023 4.475a13.287 13.287 0 0 0 12.182 5.788l18.516-1.662H267.496l19.522-2.241a3.5 3.5 0 1 0-.8-6.954l-15.9 1.825-1.068-14.596a22.372 22.372 0 0 0-1.692-7.042 198.928 198.928 0 0 0-22.523-39.377 4.26 4.26 0 0 0-.117-.149l-4.719-5.712c-.026-.031-.058-.053-.085-.083a3.449 3.449 0 0 0-.265-.262c-.08-.073-.158-.147-.244-.211s-.186-.126-.283-.186a3.462 3.462 0 0 0-.307-.175c-.092-.044-.189-.078-.285-.115a3.567 3.567 0 0 0-.371-.121c-.036-.01-.069-.027-.106-.035-.063-.014-.125-.012-.188-.022a3.593 3.593 0 0 0-.386-.045c-.106-.006-.211 0-.316 0a3.56 3.56 0 0 0-.356.03c-.109.016-.215.038-.321.063s-.223.058-.333.1-.211.082-.314.129-.2.095-.293.151a3.379 3.379 0 0 0-.318.212c-.051.039-.107.065-.157.106-.029.024-.05.054-.078.079a3.3 3.3 0 0 0-.276.279c-.069.076-.139.151-.2.232a3.426 3.426 0 0 0-.191.293c-.06.1-.12.195-.17.3s-.081.193-.118.292a3.419 3.419 0 0 0-.119.363c-.01.038-.027.071-.036.109l-.3 1.361a3.3 3.3 0 0 1-1.872 2.331 3.469 3.469 0 0 1-3.1-.09c-14.692-7.756-17.505-25.728-17.531-25.909a3.5 3.5 0 0 0-6.929 1c.126.88 3.294 21.651 21.191 31.1a10.416 10.416 0 0 0 9.319.251 10.351 10.351 0 0 0 3.546-2.705l1.059 1.282a191.647 191.647 0 0 1 21.644 37.853 15.437 15.437 0 0 1 1.165 4.843l1.087 14.793-15.086 1.354a6.273 6.273 0 0 1-5.756-2.734l-3.023-4.476a6.262 6.262 0 0 1-1.068-3.192l-.8-15.631a3.5 3.5 0 0 0-5.358-2.784c-12.456 7.834-15.234 20.032-14.663 29.39a35.118 35.118 0 0 1-3.492-4c-3.378-6.787-2.322-18.559-2.311-18.676a3.5 3.5 0 0 0-6.023-2.741c-11.862 12.5-10.546 24.915-10.269 26.771a34.812 34.812 0 0 0 3.245 11.329 20.23 20.23 0 0 1-6.652-3.72l-5.011-16.21a3.5 3.5 0 0 0-6.4-.677 39.875 39.875 0 0 0-2.33 33.591 3.49 3.49 0 0 0 1.281 1.52c10.056 6.629 25.678 11.733 34.094 14.186a20.084 20.084 0 0 0 11.9-.126c27.556-9 61.8-3.521 71.644-1.628a23.894 23.894 0 0 0 11.407-.5c21.609-6.567 25.465-28.285 25.618-29.207a3.5 3.5 0 0 0-4.186-4 32.391 32.391 0 0 1-10.848.5c-.736-5.642-3.817-11.253-6.5-15.223a65.612 65.612 0 0 1-4.576-7.81c-6.1-12.426-14.159-31.509-14.259-31.747-10.633-24.234-23.949-48.32-28.95-57.158 10.5-5.385 12.048-17.351 12.115-17.916a3.5 3.5 0 0 0-4.042-3.865 17.514 17.514 0 0 1-6.645-.381 28.45 28.45 0 0 1-12.865-6.937 62.382 62.382 0 0 0-10.685-7.673c5.046-6.405 4.119-14.473 4.067-14.881a3.5 3.5 0 0 0-3.935-3.037c-9.64 1.307-22.544-7.067-23.615-7.776-9.087-6.936-22.26-6.645-28.463-6.032-3.291-15.67-10.321-31.438-12.839-36.793 5.637-8.521 8.788-20.038 8.492-31.278a3.5 3.5 0 0 0-4.76-3.173l-36.371 14.043-20.706-13.078a23 23 0 0 0-16.346-3.206l-2.982.53a8.512 8.512 0 0 1-7.757-2.584l-10.571-11.74L63.84 5.524a3.5 3.5 0 0 0-2.6-1.159h-.033A3.5 3.5 0 0 0 58.6 5.571a74.22 74.22 0 0 0-2.481 3.027q-.823 1.056-1.593 2.123c-.075.1-.156.208-.231.313a64.536 64.536 0 0 0-2.068 3.119q-.6.954-1.148 1.914c-.1.18-.214.359-.315.54a56.284 56.284 0 0 0-1.223 2.322c-.136.273-.267.547-.4.821-.106.222-.22.442-.322.663-.031.066-.046.137-.072.2a48.594 48.594 0 0 0-2.647 7.159 36.345 36.345 0 0 0 13.538 38.69l1.834 1.353A26.436 26.436 0 0 0 44.708 82.04a3.5 3.5 0 0 0 1.056 4.119l26.764 21.069a35.919 35.919 0 0 1 13.313 21.6 54.128 54.128 0 0 1-.389 20.391 58.816 58.816 0 0 1-8.779 20.686c-12.485 19.054-13.84 40.466-13.891 41.368a3.5 3.5 0 0 0 2.573 3.576 28.665 28.665 0 0 0 12.157.5c-.719 23.692 13.913 49.885 15.168 52.085 6.45 13.2 6.084 23.641 5.518 27.963l-21.161 2.838a6.164 6.164 0 0 1-6.983-5.939l-.639-23a3.5 3.5 0 0 0-5.257-2.929c-11.672 6.786-15.106 20.559-16.1 28.935l-1.727-1.334c-2.857-11.6-.022-27.747.008-27.914a3.5 3.5 0 0 0-5.638-3.346C27.654 273.2 25.093 287.179 24.913 295.76l-1.524-1.08c-1.979-10.253-3.617-26.2-3.635-26.363a3.5 3.5 0 0 0-6.478-1.453 62.547 62.547 0 0 0-8.26 40.49 14.251 14.251 0 0 0 3.307 7.269zM63.3 31.312c-3.381-1.69-5.91-4.78-7.527-9.194.043-.087.083-.174.127-.261.26-.515.537-1.03.82-1.544.114-.206.223-.412.34-.618.311-.546.641-1.091.978-1.636.107-.173.208-.347.318-.52.383-.6.786-1.205 1.2-1.805.08-.114.152-.23.233-.345q.756-1.08 1.578-2.152L78.2 31.931c-6.1 1.487-11.1 1.281-14.9-.619z" fill="#423b4f" opacity="1" data-original="#423b4f" class=""/><path d="m114.486 70.017 7.542 3.142a3.5 3.5 0 1 0 2.691-6.461l-7.542-3.143a3.5 3.5 0 0 0-2.691 6.462zM109.156 142.4c-.294.687-7.129 17-1.6 30.673 2.607 6.449 7.472 11.21 14.457 14.151a3.5 3.5 0 0 0 3.458-.425c.338-.253 6.02-4.65 8.356-14.712 4.121 4.7 10.878 8.893 21.958 9.745a3.5 3.5 0 0 0 3.769-3.49v-3.919c6.565 4.219 18.177 7.807 34.656-1.37a3.5 3.5 0 1 0-3.406-6.115c-21.3 11.867-31.48-1.677-31.89-2.241a3.5 3.5 0 0 0-6.36 2.018v7.664c-14.3-2.552-17.338-12.458-17.976-16.146q-.081-.84-.193-1.708a3.5 3.5 0 0 0-6.97.561c0 .034.026.571.159 1.465 1.27 12.05-2.7 18.6-4.918 21.241a17.922 17.922 0 0 1-8.6-9.318c-4.448-10.953 1.478-25.187 1.538-25.33a3.5 3.5 0 0 0-6.439-2.744z" fill="#423b4f" opacity="1" data-original="#423b4f" class=""/></g></g></svg>