<?xml version="1.0" encoding="UTF-8"?>
<!DOCTYPE svg PUBLIC "-//W3C//DTD SVG 1.1//EN" "http://www.w3.org/Graphics/SVG/1.1/DTD/svg11.dtd">
<svg xmlns="http://www.w3.org/2000/svg" version="1.1" width="512px" height="512px" style="shape-rendering:geometricPrecision; text-rendering:geometricPrecision; image-rendering:optimizeQuality; fill-rule:evenodd; clip-rule:evenodd" xmlns:xlink="http://www.w3.org/1999/xlink">
<g><path style="opacity:0.988" fill="#000100" d="M 228.5,15.5 C 270.764,14.3552 312.764,17.1886 354.5,24C 356.286,24.7845 357.786,25.9512 359,27.5C 357.125,84.8722 354.292,142.206 350.5,199.5C 353.272,199.22 355.772,199.887 358,201.5C 359.388,206.372 359.888,211.372 359.5,216.5C 375.136,213.373 390.803,210.373 406.5,207.5C 410.363,206.85 413.196,208.183 415,211.5C 415.667,224.5 415.667,237.5 415,250.5C 403.054,262.786 390.22,273.953 376.5,284C 390.394,294.017 394.894,307.184 390,323.5C 385.977,334.028 378.477,340.361 367.5,342.5C 367.667,360.17 367.5,377.836 367,395.5C 366.654,397.218 366.154,398.885 365.5,400.5C 386.734,406.642 408.067,412.476 429.5,418C 443.029,423.526 451.529,433.36 455,447.5C 455.968,462.926 455.634,478.259 454,493.5C 453.25,494.126 452.416,494.626 451.5,495C 320.833,495.667 190.167,495.667 59.5,495C 58.5838,494.626 57.7504,494.126 57,493.5C 55.371,480.261 55.0377,466.928 56,453.5C 59.4708,439.36 67.9708,429.526 81.5,424C 102.835,416.889 124.001,409.389 145,401.5C 143.577,381.966 143.077,362.299 143.5,342.5C 124.785,336.245 116.951,323.245 120,303.5C 122.356,294.986 127.189,288.319 134.5,283.5C 120.971,274.145 108.471,263.478 97,251.5C 95.371,238.261 95.0377,224.928 96,211.5C 97.4153,208.295 99.9153,206.628 103.5,206.5C 119.488,209.964 135.488,213.297 151.5,216.5C 151.112,211.372 151.612,206.372 153,201.5C 155.228,199.887 157.728,199.22 160.5,199.5C 156.708,142.206 153.875,84.8722 152,27.5C 153.214,25.9512 154.714,24.7845 156.5,24C 180.635,21.0416 204.635,18.2082 228.5,15.5 Z"/></g>
<g><path style="opacity:1" fill="#009a47" d="M 255.5,183.5 C 258.249,129.823 245.082,80.4895 216,35.5C 215.329,34.7476 214.496,34.4142 213.5,34.5C 219.266,33.0117 225.266,32.1783 231.5,32C 246.5,31.3333 261.5,31.3333 276.5,32C 298.866,33.9747 321.199,36.1413 343.5,38.5C 341.627,62.7986 340.294,87.132 339.5,111.5C 319.5,111.5 299.5,111.5 279.5,111.5C 279.5,116.833 279.5,122.167 279.5,127.5C 298.833,127.5 318.167,127.5 337.5,127.5C 337.5,130.167 337.5,132.833 337.5,135.5C 323.5,135.5 309.5,135.5 295.5,135.5C 295.5,140.833 295.5,146.167 295.5,151.5C 309.167,151.5 322.833,151.5 336.5,151.5C 336.5,154.167 336.5,156.833 336.5,159.5C 317.5,159.5 298.5,159.5 279.5,159.5C 279.5,164.833 279.5,170.167 279.5,175.5C 298.167,175.5 316.833,175.5 335.5,175.5C 334.677,183.471 334.344,191.471 334.5,199.5C 321.5,199.5 308.5,199.5 295.5,199.5C 295.665,195.818 295.499,192.152 295,188.5C 294.535,187.069 293.701,185.903 292.5,185C 280.242,183.561 267.909,183.061 255.5,183.5 Z"/></g>
<g><path style="opacity:1" fill="#01b148" d="M 213.5,34.5 C 214.496,34.4142 215.329,34.7476 216,35.5C 245.082,80.4895 258.249,129.823 255.5,183.5C 243.829,183.333 232.162,183.5 220.5,184C 218.333,184.833 216.833,186.333 216,188.5C 215.501,192.152 215.335,195.818 215.5,199.5C 202.5,199.5 189.5,199.5 176.5,199.5C 176.656,191.471 176.323,183.471 175.5,175.5C 193.833,175.5 212.167,175.5 230.5,175.5C 230.5,170.167 230.5,164.833 230.5,159.5C 211.833,159.5 193.167,159.5 174.5,159.5C 174.5,156.833 174.5,154.167 174.5,151.5C 188.167,151.5 201.833,151.5 215.5,151.5C 215.5,146.167 215.5,140.833 215.5,135.5C 201.5,135.5 187.5,135.5 173.5,135.5C 173.5,132.833 173.5,130.167 173.5,127.5C 192.5,127.5 211.5,127.5 230.5,127.5C 230.5,122.167 230.5,116.833 230.5,111.5C 210.833,111.5 191.167,111.5 171.5,111.5C 170.98,89.809 169.98,68.1423 168.5,46.5C 168.132,43.4669 168.798,40.8002 170.5,38.5C 184.776,36.5805 199.11,35.2471 213.5,34.5 Z"/></g>
<g><path style="opacity:1" fill="#003f1a" d="M 170.5,38.5 C 168.798,40.8002 168.132,43.4669 168.5,46.5C 167.527,44.0521 167.194,41.3854 167.5,38.5C 168.5,38.5 169.5,38.5 170.5,38.5 Z"/></g>
<g><path style="opacity:1" fill="#ed700c" d="M 231.5,199.5 C 247.5,199.5 263.5,199.5 279.5,199.5C 279.5,215.5 279.5,231.5 279.5,247.5C 263.5,247.5 247.5,247.5 231.5,247.5C 231.5,231.5 231.5,215.5 231.5,199.5 Z"/></g>
<g><path style="opacity:1" fill="#e6f2f1" d="M 167.5,215.5 C 183.5,215.5 199.5,215.5 215.5,215.5C 215.5,220.833 215.5,226.167 215.5,231.5C 199.5,231.5 183.5,231.5 167.5,231.5C 167.5,226.167 167.5,220.833 167.5,215.5 Z"/></g>
<g><path style="opacity:1" fill="#000000" d="M 247.5,215.5 C 252.833,215.5 258.167,215.5 263.5,215.5C 263.5,220.833 263.5,226.167 263.5,231.5C 258.167,231.5 252.833,231.5 247.5,231.5C 247.5,226.167 247.5,220.833 247.5,215.5 Z"/></g>
<g><path style="opacity:1" fill="#e6f2f1" d="M 295.5,215.5 C 311.5,215.5 327.5,215.5 343.5,215.5C 343.5,220.833 343.5,226.167 343.5,231.5C 327.5,231.5 311.5,231.5 295.5,231.5C 295.5,226.167 295.5,220.833 295.5,215.5 Z"/></g>
<g><path style="opacity:1" fill="#01b048" d="M 223.5,263.5 C 216.792,274.408 209.459,284.908 201.5,295C 200.552,295.483 199.552,295.649 198.5,295.5C 165.035,285.692 136.202,268.359 112,243.5C 111.501,237.509 111.334,231.509 111.5,225.5C 124.835,227.834 138.168,230.167 151.5,232.5C 151.234,236.605 151.734,240.605 153,244.5C 153.903,245.701 155.069,246.535 156.5,247C 176.164,247.5 195.831,247.667 215.5,247.5C 215.21,251.936 215.71,256.27 217,260.5C 218.734,262.451 220.901,263.451 223.5,263.5 Z"/></g>
<g><path style="opacity:1" fill="#009947" d="M 198.5,295.5 C 199.552,295.649 200.552,295.483 201.5,295C 209.459,284.908 216.792,274.408 223.5,263.5C 245.503,263.667 267.503,263.5 289.5,263C 291.329,262.727 292.829,261.893 294,260.5C 295.29,256.27 295.79,251.936 295.5,247.5C 314.836,247.667 334.17,247.5 353.5,247C 355.329,246.727 356.829,245.893 358,244.5C 358.641,240.394 359.807,236.56 361.5,233C 374.167,230.433 386.834,227.933 399.5,225.5C 399.666,231.509 399.499,237.509 399,243.5C 347.266,293.486 285.766,312.319 214.5,300C 208.887,299.053 203.554,297.553 198.5,295.5 Z"/></g>
<g><path style="opacity:1" fill="#d9d9d9" d="M 159.5,297.5 C 164.581,299.204 169.581,301.204 174.5,303.5C 175.333,325.159 175.833,346.826 176,368.5C 182.002,388.085 194.835,394.918 214.5,389C 243.489,373.292 272.155,373.958 300.5,391C 318.789,393.62 330.289,386.12 335,368.5C 335.167,346.826 335.667,325.159 336.5,303.5C 341.167,301.5 345.833,299.5 350.5,297.5C 351.667,328.828 351.833,360.161 351,391.5C 349.148,403.666 342.982,412.832 332.5,419C 306.828,430.836 281.162,442.669 255.5,454.5C 229.797,442.765 204.13,430.931 178.5,419C 168.468,412.436 162.301,403.27 160,391.5C 159.5,360.168 159.333,328.835 159.5,297.5 Z"/></g>
<g><path style="opacity:1" fill="#d27e5d" d="M 141.5,298.5 C 142.825,302.445 143.492,306.778 143.5,311.5C 143.167,315.833 142.833,320.167 142.5,324.5C 133.636,316.135 133.303,307.468 141.5,298.5 Z"/></g>
<g><path style="opacity:1" fill="#d27e5d" d="M 367.5,298.5 C 375.434,303.071 377.601,309.738 374,318.5C 372.691,320.976 370.858,322.976 368.5,324.5C 367.502,315.859 367.169,307.192 367.5,298.5 Z"/></g>
<g><path style="opacity:1" fill="#f0ac88" d="M 317.5,309.5 C 318.832,318.642 319.498,328.142 319.5,338C 319.333,347.5 319.167,357 319,366.5C 317.69,372.328 314.023,375.328 308,375.5C 299.252,371.879 290.419,368.379 281.5,365C 255.037,357.592 230.037,360.925 206.5,375C 199.109,376.392 194.276,373.558 192,366.5C 191.5,347.836 191.333,329.17 191.5,310.5C 221.007,318.59 251.007,321.09 281.5,318C 293.877,316.229 305.877,313.396 317.5,309.5 Z"/></g>
<g><path style="opacity:1" fill="#040404" d="M 228.5,394.5 C 236.961,404.047 247.628,408.214 260.5,407C 269.048,405.394 276.048,401.227 281.5,394.5C 285.687,397.764 289.687,401.264 293.5,405C 275.695,423.856 255.029,427.856 231.5,417C 226.245,413.749 221.578,409.749 217.5,405C 221.241,401.484 224.908,397.984 228.5,394.5 Z"/></g>
<g><path style="opacity:1" fill="#009a47" d="M 151.5,416.5 C 152.675,416.281 153.675,416.614 154.5,417.5C 159.073,424.574 165.073,430.074 172.5,434C 199.834,446.918 227.334,459.418 255,471.5C 284.905,458.965 314.405,445.465 343.5,431C 349.009,426.657 354.009,421.824 358.5,416.5C 379.747,422.312 401.08,427.812 422.5,433C 431.096,435.929 436.596,441.763 439,450.5C 439.5,460.161 439.666,469.828 439.5,479.5C 412.833,479.5 386.167,479.5 359.5,479.5C 359.5,474.167 359.5,468.833 359.5,463.5C 354.167,463.5 348.833,463.5 343.5,463.5C 343.5,468.833 343.5,474.167 343.5,479.5C 284.833,479.5 226.167,479.5 167.5,479.5C 167.5,474.167 167.5,468.833 167.5,463.5C 162.167,463.5 156.833,463.5 151.5,463.5C 151.5,468.833 151.5,474.167 151.5,479.5C 124.833,479.5 98.1667,479.5 71.5,479.5C 71.3336,471.826 71.5003,464.159 72,456.5C 74.0219,448.948 78.5219,443.448 85.5,440C 107.695,432.388 129.695,424.554 151.5,416.5 Z"/></g>
</svg>
