<?xml version="1.0" encoding="UTF-8"?>
<!DOCTYPE svg PUBLIC "-//W3C//DTD SVG 1.1//EN" "http://www.w3.org/Graphics/SVG/1.1/DTD/svg11.dtd">
<svg xmlns="http://www.w3.org/2000/svg" version="1.1" width="512px" height="512px" style="shape-rendering:geometricPrecision; text-rendering:geometricPrecision; image-rendering:optimizeQuality; fill-rule:evenodd; clip-rule:evenodd" xmlns:xlink="http://www.w3.org/1999/xlink">
<g><path style="opacity:0.985" fill="#010000" d="M 231.5,-0.5 C 247.5,-0.5 263.5,-0.5 279.5,-0.5C 298.683,1.255 317.683,4.755 336.5,10C 357.635,19.4706 370.135,35.6373 374,58.5C 375.032,93.8536 376.199,129.187 377.5,164.5C 397.99,164.487 409.657,174.654 412.5,195C 411.144,210.352 403.144,220.352 388.5,225C 384.848,225.499 381.182,225.665 377.5,225.5C 377.667,243.503 377.5,261.503 377,279.5C 375.409,293.081 368.909,303.581 357.5,311C 341.167,319.833 324.833,328.667 308.5,337.5C 307.502,346.141 307.169,354.808 307.5,363.5C 337.87,363.047 368.203,363.547 398.5,365C 425.002,371.834 440.835,388.667 446,415.5C 446.667,445.833 446.667,476.167 446,506.5C 444.975,508.687 443.475,510.354 441.5,511.5C 317.5,511.5 193.5,511.5 69.5,511.5C 67.525,510.354 66.025,508.687 65,506.5C 64.3333,476.167 64.3333,445.833 65,415.5C 70.165,388.667 85.9984,371.834 112.5,365C 142.797,363.547 173.13,363.047 203.5,363.5C 203.831,354.808 203.498,346.141 202.5,337.5C 186.167,328.667 169.833,319.833 153.5,311C 142.551,303.272 136.051,292.772 134,279.5C 133.5,261.503 133.333,243.503 133.5,225.5C 118.155,226.748 107.322,220.415 101,206.5C 95.5674,186.2 102.734,172.366 122.5,165C 126.152,164.501 129.818,164.335 133.5,164.5C 134.59,128.84 135.756,93.1732 137,57.5C 141.321,35.1818 153.821,19.3484 174.5,10C 193.317,4.755 212.317,1.255 231.5,-0.5 Z"/></g>
<g><path style="opacity:1" fill="#4b3c23" d="M 227.5,17.5 C 260.191,15.6327 292.524,18.1327 324.5,25C 341.179,30.3456 351.679,41.5123 356,58.5C 357.35,84.1572 358.016,109.824 358,135.5C 353.178,119.212 348.511,102.878 344,86.5C 333.725,59.4393 314.225,48.6059 285.5,54C 278.383,56.4554 271.716,59.7888 265.5,64C 257.833,67.3333 250.167,67.3333 242.5,64C 229.875,55.0105 215.875,51.3438 200.5,53C 184.563,57.2071 173.063,66.7071 166,81.5C 161.089,97.9972 156.756,114.664 153,131.5C 153,109.503 153.333,87.5032 154,65.5C 156.474,43.6903 168.308,29.857 189.5,24C 202.237,21.3987 214.904,19.232 227.5,17.5 Z"/></g>
<g><path style="opacity:1" fill="#edd1b5" d="M 204.5,69.5 C 210.345,69.151 216.012,69.9843 221.5,72C 235.965,83.0928 251.965,86.0928 269.5,81C 276.833,77.3333 284.167,73.6667 291.5,70C 308.216,67.7719 320.049,74.2719 327,89.5C 335.131,118.892 343.464,148.225 352,177.5C 353.715,180.397 356.215,181.731 359.5,181.5C 359.667,192.172 359.5,202.839 359,213.5C 346.167,225 333.333,236.5 320.5,248C 315.799,251.681 310.799,254.848 305.5,257.5C 296.737,253.118 287.737,249.285 278.5,246C 261.716,241.112 245.05,241.445 228.5,247C 221.379,250.061 214.379,253.394 207.5,257C 206.167,257.667 204.833,257.667 203.5,257C 199.5,254.333 195.5,251.667 191.5,249C 178.333,237.167 165.167,225.333 152,213.5C 151.5,202.839 151.333,192.172 151.5,181.5C 155.948,181.226 158.781,178.892 160,174.5C 167.201,144.694 174.868,115.027 183,85.5C 188.121,77.1856 195.288,71.8523 204.5,69.5 Z"/></g>
<g><path style="opacity:1" fill="#eaceb2" d="M 127.5,182.5 C 129.5,182.5 131.5,182.5 133.5,182.5C 133.5,190.833 133.5,199.167 133.5,207.5C 131.167,207.5 128.833,207.5 126.5,207.5C 116.246,202.993 114.079,195.993 120,186.5C 122.185,184.46 124.685,183.126 127.5,182.5 Z"/></g>
<g><path style="opacity:1" fill="#877766" d="M 127.5,182.5 C 129.607,181.532 131.941,181.198 134.5,181.5C 134.5,190.5 134.5,199.5 134.5,208.5C 131.615,208.806 128.948,208.473 126.5,207.5C 128.833,207.5 131.167,207.5 133.5,207.5C 133.5,199.167 133.5,190.833 133.5,182.5C 131.5,182.5 129.5,182.5 127.5,182.5 Z"/></g>
<g><path style="opacity:1" fill="#887767" d="M 383.5,182.5 C 381.5,182.5 379.5,182.5 377.5,182.5C 377.5,190.833 377.5,199.167 377.5,207.5C 379.5,207.5 381.5,207.5 383.5,207.5C 381.393,208.468 379.059,208.802 376.5,208.5C 376.5,199.5 376.5,190.5 376.5,181.5C 379.059,181.198 381.393,181.532 383.5,182.5 Z"/></g>
<g><path style="opacity:1" fill="#eaceb2" d="M 383.5,182.5 C 394.504,186.502 397.004,193.502 391,203.5C 388.815,205.54 386.315,206.874 383.5,207.5C 381.5,207.5 379.5,207.5 377.5,207.5C 377.5,199.167 377.5,190.833 377.5,182.5C 379.5,182.5 381.5,182.5 383.5,182.5 Z"/></g>
<g><path style="opacity:1" fill="#040303" d="M 207.5,184.5 C 220.628,183.608 227.128,189.608 227,202.5C 222.421,213.693 214.587,216.86 203.5,212C 197.885,207.032 196.052,200.865 198,193.5C 200.406,189.592 203.572,186.592 207.5,184.5 Z"/></g>
<g><path style="opacity:1" fill="#050403" d="M 293.5,184.5 C 310.849,184.329 316.682,192.329 311,208.5C 301.201,217.275 292.534,216.275 285,205.5C 282.308,196.223 285.141,189.223 293.5,184.5 Z"/></g>
<g><path style="opacity:1" fill="#c5ad96" d="M 210.5,197.5 C 212.346,197.222 213.68,197.889 214.5,199.5C 213.68,201.111 212.346,201.778 210.5,201.5C 210.5,200.167 210.5,198.833 210.5,197.5 Z"/></g>
<g><path style="opacity:1" fill="#c5ad96" d="M 297.5,197.5 C 298.5,197.5 299.5,197.5 300.5,197.5C 300.5,198.833 300.5,200.167 300.5,201.5C 297.046,201.733 296.046,200.4 297.5,197.5 Z"/></g>
<g><path style="opacity:1" fill="#4b3c23" d="M 151.5,236.5 C 161.656,245.091 171.656,253.924 181.5,263C 220.843,291.492 262.843,295.992 307.5,276.5C 315,272.251 322.334,267.751 329.5,263C 339.239,254.05 349.072,245.216 359,236.5C 359.879,251.869 359.546,267.203 358,282.5C 355.584,287.907 352.084,292.407 347.5,296C 319.293,311.27 290.96,326.27 262.5,341C 257.833,341.667 253.167,341.667 248.5,341C 221.549,327.525 194.882,313.525 168.5,299C 158.71,294.205 153.21,286.372 152,275.5C 151.5,262.504 151.333,249.504 151.5,236.5 Z"/></g>
<g><path style="opacity:1" fill="#e3c8ad" d="M 246.5,259.5 C 259.543,258.284 271.876,260.617 283.5,266.5C 278.409,268.619 273.076,269.785 267.5,270C 258.167,270.667 248.833,270.667 239.5,270C 235.297,269.45 231.297,268.283 227.5,266.5C 233.656,263.389 239.99,261.056 246.5,259.5 Z"/></g>
<g><path style="opacity:1" fill="#eaceb2" d="M 220.5,346.5 C 226.982,350.242 233.649,353.742 240.5,357C 251.277,360.505 261.944,360.171 272.5,356C 278.333,352.833 284.167,349.667 290,346.5C 290.667,354.167 290.667,361.833 290,369.5C 278.653,381.014 267.153,392.348 255.5,403.5C 243.847,392.348 232.347,381.014 221,369.5C 220.5,361.841 220.334,354.174 220.5,346.5 Z"/></g>
<g><path style="opacity:1" fill="#944d21" d="M 183.5,491.5 C 150.183,493.493 116.517,494.16 82.5,493.5C 82.5,469.833 82.5,446.167 82.5,422.5C 84.973,401.185 96.6397,387.685 117.5,382C 132.496,381.5 147.496,381.333 162.5,381.5C 169.5,418.167 176.5,454.833 183.5,491.5 Z"/></g>
<g><path style="opacity:1" fill="#2d2b42" d="M 190.5,382.5 C 196.653,381.347 202.986,381.18 209.5,382C 223.5,396 237.5,410 251.5,424C 254.167,424.667 256.833,424.667 259.5,424C 273.5,410 287.5,396 301.5,382C 307.833,381.333 314.167,381.333 320.5,382C 298.986,403.681 277.32,425.181 255.5,446.5C 233.813,425.146 212.146,403.812 190.5,382.5 Z"/></g>
<g><path style="opacity:1" fill="#944d21" d="M 428.5,422.5 C 428.5,446.167 428.5,469.833 428.5,493.5C 394.483,494.16 360.817,493.493 327.5,491.5C 334.5,454.833 341.5,418.167 348.5,381.5C 363.17,381.333 377.837,381.5 392.5,382C 413.925,387.251 425.925,400.751 428.5,422.5 Z"/></g>
<g><path style="opacity:1" fill="#ed8e1f" d="M 183.5,400.5 C 205.299,421.798 226.965,443.298 248.5,465C 253.167,468.333 257.833,468.333 262.5,465C 284,443.5 305.5,422 327,400.5C 321.627,431.87 315.793,463.203 309.5,494.5C 273.5,494.5 237.5,494.5 201.5,494.5C 195.371,463.189 189.371,431.856 183.5,400.5 Z"/></g>
<g><path style="opacity:1" fill="#542c13" d="M 82.5,422.5 C 82.5,446.167 82.5,469.833 82.5,493.5C 116.517,494.16 150.183,493.493 183.5,491.5C 184.404,492.209 184.737,493.209 184.5,494.5C 150.167,494.5 115.833,494.5 81.5,494.5C 81.1691,470.328 81.5024,446.328 82.5,422.5 Z"/></g>
<g><path style="opacity:1" fill="#542c13" d="M 428.5,422.5 C 429.498,446.328 429.831,470.328 429.5,494.5C 395.167,494.5 360.833,494.5 326.5,494.5C 326.263,493.209 326.596,492.209 327.5,491.5C 360.817,493.493 394.483,494.16 428.5,493.5C 428.5,469.833 428.5,446.167 428.5,422.5 Z"/></g>
</svg>
