<?xml version="1.0" encoding="UTF-8" standalone="no"?>
<!-- Created with Inkscape (http://www.inkscape.org/) -->

<svg
   version="1.1"
   id="svg8655"
   xml:space="preserve"
   width="682.66669"
   height="682.66669"
   viewBox="0 0 682.66669 682.66669"
   xmlns="http://www.w3.org/2000/svg"
   xmlns:svg="http://www.w3.org/2000/svg"><defs
     id="defs8659"><clipPath
       clipPathUnits="userSpaceOnUse"
       id="clipPath8669"><path
         d="M 0,512 H 512 V 0 H 0 Z"
         id="path8667" /></clipPath></defs><g
     id="g8661"
     transform="matrix(1.3333333,0,0,-1.3333333,0,682.66667)"><g
       id="g8663"><g
         id="g8665"
         clip-path="url(#clipPath8669)"><g
           id="g8671"
           transform="translate(472.9209,178.0977)"><path
             d="m 0,0 c 1.739,7.242 2.533,14.852 2.216,22.699 -1.805,44.574 -39.195,79.447 -83.805,79.447 h -135.332 -135.332 c -44.608,0 -81.998,-34.871 -83.805,-79.443 -0.318,-7.849 0.476,-15.46 2.216,-22.703 1.131,-4.712 0.533,-9.658 -1.674,-13.972 -10.449,-20.42 -29.905,-70.064 -29.905,-156.626 h 248.5 248.5 c 0,86.562 -19.456,136.206 -29.905,156.626 C -0.533,-9.658 -1.131,-4.712 0,0"
             style="fill:#407093;fill-opacity:1;fill-rule:nonzero;stroke:none"
             id="path8673" /></g><g
           id="g8675"
           transform="translate(472.9199,178.0918)"><path
             d="m 0,0 c 1.74,7.244 2.534,14.854 2.217,22.704 -1.804,44.574 -39.195,79.448 -83.805,79.448 H -216.92 -352.252 c -8.978,0 -17.655,-1.434 -25.817,-4.054 7.911,-42.819 20.835,-62.332 22.876,-65.209 4.632,-6.529 12.065,-10.215 19.773,-10.215 1.346,0 2.7,0.112 4.049,0.343 7.418,-14.139 15.646,-22.325 17.262,-23.859 4.343,-4.127 9.949,-6.405 15.701,-6.639 9.794,-17.99 22.949,-29.992 25.224,-31.995 4.561,-4.012 10.282,-6.044 16.021,-6.044 0.879,0 1.759,0.048 2.635,0.144 15.868,-15.607 31.546,-18.511 34.011,-18.881 1.193,-0.178 2.395,-0.267 3.597,-0.267 1.202,0 2.404,0.089 3.597,0.267 2.466,0.37 18.143,3.274 34.011,18.881 0.876,-0.096 1.756,-0.144 2.635,-0.144 5.74,0 11.461,2.032 16.021,6.044 2.275,2.003 15.427,14 25.219,31.987 5.754,0.237 11.362,2.519 15.707,6.647 1.615,1.534 9.843,9.72 17.26,23.858 1.351,-0.23 2.703,-0.342 4.05,-0.342 7.707,0.001 15.142,3.686 19.774,10.215 1.252,1.764 6.6,9.795 12.375,25.626 2.948,8.084 13.971,9.076 18.268,1.621 6.393,-11.091 10.272,-23.806 10.823,-37.431 0.319,-7.861 -0.478,-15.483 -2.224,-22.737 -1.109,-4.606 -0.629,-9.439 1.537,-13.651 10.413,-20.243 30.051,-69.945 30.051,-156.909 H 31.58 C 31.58,-84.022 12.12,-34.377 1.672,-13.96 -0.534,-9.65 -1.131,-4.708 0,0"
             style="fill:#365e7d;fill-opacity:1;fill-rule:nonzero;stroke:none"
             id="path8677" /></g><g
           id="g8679"
           transform="translate(256,504.5)"><path
             d="m 0,0 c 139.744,0 152.042,-168.812 152.042,-168.812 -4.472,11.18 -8.943,14.535 -8.943,14.535 0,-90.555 -24.596,-125.211 -24.596,-125.211 0,17.886 -15.651,27.948 -15.651,27.948 0,-36.893 -22.359,-58.134 -22.359,-58.134 0,14.534 -12.298,15.652 -12.298,15.652 0,-29.067 -27.949,-53.662 -27.949,-53.662 4.472,10.062 -3.353,17.887 -3.353,17.887 C 22.359,-363.335 0,-366.689 0,-366.689 c 0,0 -22.359,3.354 -36.893,36.892 0,0 -7.825,-7.825 -3.353,-17.887 0,0 -27.949,24.595 -27.949,53.662 0,0 -12.298,-1.118 -12.298,-15.652 0,0 -22.359,21.241 -22.359,58.134 0,0 -15.651,-10.062 -15.651,-27.948 0,0 -24.596,34.656 -24.596,125.211 0,0 -4.471,-3.355 -8.943,-14.535 0,0 12.298,168.812 152.042,168.812"
             style="fill:#4a80aa;fill-opacity:1;fill-rule:nonzero;stroke:none"
             id="path8681" /></g><g
           id="g8683"
           transform="translate(256,504.5)"><path
             d="M 0,0 C -6.039,0 -11.835,-0.322 -17.407,-0.926 85.48,-12.064 110.396,-121.39 115.834,-157.385 c 0.326,-2.16 -2.511,-3.236 -3.727,-1.421 -0.037,0.056 -0.075,0.112 -0.111,0.166 -1.129,1.666 -3.721,0.896 -3.743,-1.117 -0.741,-66.543 -14.887,-101.572 -21.368,-114.186 -0.888,-1.726 -3.425,-1.347 -3.819,0.553 -1.931,9.335 -7.923,15.907 -11.732,19.269 -1.293,1.142 -3.31,0.259 -3.387,-1.464 -1.163,-25.97 -13.263,-43.557 -19.124,-50.616 -1.093,-1.317 -3.219,-0.783 -3.566,0.892 -1.435,6.908 -6.199,9.619 -9.24,10.661 -1.284,0.439 -2.629,-0.461 -2.702,-1.816 -1.077,-20.304 -15.264,-38.104 -22.974,-46.348 -1.25,-1.336 -3.539,-0.469 -3.529,1.361 0.02,3.645 -1.309,6.699 -2.565,8.765 -0.84,1.383 -2.887,1.241 -3.579,-0.221 -5.593,-11.797 -12.139,-19.516 -18.075,-24.55 9.481,-8.04 17.407,-9.232 17.407,-9.232 0,0 22.359,3.354 36.893,36.892 0,0 7.825,-7.825 3.353,-17.887 0,0 27.949,24.595 27.949,53.663 0,0 12.297,-1.119 12.297,-15.652 0,0 22.36,21.24 22.36,58.133 0,0 15.651,-10.062 15.651,-27.948 0,0 24.595,34.656 24.595,125.211 0,0 4.472,-3.355 8.944,-14.535 C 152.042,-168.812 139.744,0 0,0"
             style="fill:#407093;fill-opacity:1;fill-rule:nonzero;stroke:none"
             id="path8685" /></g><g
           id="g8687"
           transform="translate(366.1074,344.8945)"><path
             d="m 0,0 c 0,-22.316 -18.09,-40.406 -40.406,-40.406 -22.316,0 -40.407,18.09 -40.407,40.406 0,22.315 18.091,40.406 40.407,40.406 C -18.09,40.406 0,22.315 0,0"
             style="fill:#dd636e;fill-opacity:1;fill-rule:nonzero;stroke:none"
             id="path8689" /></g><g
           id="g8691"
           transform="translate(343.6963,381.0723)"><path
             d="m 0,0 c 2.701,-5.42 4.229,-11.527 4.229,-17.995 0,-22.316 -18.091,-40.406 -40.407,-40.406 -6.468,0 -12.575,1.527 -17.995,4.228 6.62,-13.282 20.329,-22.411 36.178,-22.411 22.315,0 40.406,18.09 40.406,40.406 C 22.411,-20.329 13.282,-6.62 0,0"
             style="fill:#da4a54;fill-opacity:1;fill-rule:nonzero;stroke:none"
             id="path8693" /></g><g
           id="g8695"
           transform="translate(226.7051,344.8945)"><path
             d="m 0,0 c 0,-22.316 -18.091,-40.406 -40.406,-40.406 -22.317,0 -40.407,18.09 -40.407,40.406 0,22.315 18.09,40.406 40.407,40.406 C -18.091,40.406 0,22.315 0,0"
             style="fill:#dd636e;fill-opacity:1;fill-rule:nonzero;stroke:none"
             id="path8697" /></g><g
           id="g8699"
           transform="translate(204.2939,381.0723)"><path
             d="m 0,0 c 2.701,-5.42 4.229,-11.527 4.229,-17.995 0,-22.316 -18.091,-40.406 -40.407,-40.406 -6.468,0 -12.575,1.527 -17.995,4.228 6.619,-13.282 20.329,-22.411 36.178,-22.411 22.315,0 40.406,18.09 40.406,40.406 C 22.411,-20.329 13.282,-6.62 0,0"
             style="fill:#da4a54;fill-opacity:1;fill-rule:nonzero;stroke:none"
             id="path8701" /></g><g
           id="g8703"
           transform="translate(36.7695,162.8799)"><path
             d="m 0,0 c 0.221,0.43 0.431,0.84 0.641,1.25 2.2,4.311 2.799,9.26 1.67,13.97 -1.741,7.24 -2.531,14.85 -2.22,22.7 1.779,43.931 38.139,78.44 81.899,79.41"
             style="fill:none;stroke:#000000;stroke-width:15;stroke-linecap:round;stroke-linejoin:round;stroke-miterlimit:10;stroke-dasharray:none;stroke-opacity:1"
             id="path8705" /></g><g
           id="g8707"
           transform="translate(7.5,7.5)"><path
             d="M 0,0 C 0,55.4 7.97,95.68 16.46,122.85"
             style="fill:none;stroke:#000000;stroke-width:15;stroke-linecap:round;stroke-linejoin:round;stroke-miterlimit:10;stroke-dasharray:none;stroke-opacity:1"
             id="path8709" /></g><g
           id="g8711"
           transform="translate(504.5,7.5)"><path
             d="M 0,0 C 0,35.64 -3.3,65.03 -7.91,88.69"
             style="fill:none;stroke:#000000;stroke-width:15;stroke-linecap:round;stroke-linejoin:round;stroke-miterlimit:10;stroke-dasharray:none;stroke-opacity:1"
             id="path8713" /></g><g
           id="g8715"
           transform="translate(393.2402,280.21)"><path
             d="m 0,0 c 43.76,-0.97 80.12,-35.479 81.899,-79.41 0.311,-7.85 -0.479,-15.46 -2.219,-22.7 -1.13,-4.71 -0.531,-9.66 1.67,-13.97 3.78,-7.39 8.74,-18.6 13.52,-33.99"
             style="fill:none;stroke:#000000;stroke-width:15;stroke-linecap:round;stroke-linejoin:round;stroke-miterlimit:10;stroke-dasharray:none;stroke-opacity:1"
             id="path8717" /></g><g
           id="g8719"
           transform="translate(125.6895,130.7402)"><path
             d="m 0,0 19.898,-37.23 c 7.028,-13.149 20.726,-21.36 35.636,-21.36 h 46.492 c 15.621,0 28.285,12.663 28.285,28.284 v 8.082"
             style="fill:none;stroke:#000000;stroke-width:15;stroke-linecap:round;stroke-linejoin:round;stroke-miterlimit:10;stroke-dasharray:none;stroke-opacity:1"
             id="path8721" /></g><g
           id="g8723"
           transform="translate(106.4961,123.6689)"><path
             d="M 0,0 C 0,0 41.417,10.102 48.487,46.467"
             style="fill:none;stroke:#000000;stroke-width:15;stroke-linecap:round;stroke-linejoin:round;stroke-miterlimit:10;stroke-dasharray:none;stroke-opacity:1"
             id="path8725" /></g><g
           id="g8727"
           transform="translate(181.2236,72.1504)"><path
             d="M 0,0 C 0,0 -27.25,-26.265 -27.25,-64.65"
             style="fill:none;stroke:#000000;stroke-width:15;stroke-linecap:round;stroke-linejoin:round;stroke-miterlimit:10;stroke-dasharray:none;stroke-opacity:1"
             id="path8729" /></g><g
           id="g8731"
           transform="translate(256,39.8252)"><path
             d="M 0,0 V -12.122 C 0,-23.28 -9.045,-32.325 -20.203,-32.325 H -46.36 c -6.419,0 -12.457,3.051 -16.265,8.219 l -8.086,10.974"
             style="fill:none;stroke:#000000;stroke-width:15;stroke-linecap:round;stroke-linejoin:round;stroke-miterlimit:10;stroke-dasharray:none;stroke-opacity:1"
             id="path8733" /></g><g
           id="g8735"
           transform="translate(135.791,108.5166)"><path
             d="m 0,0 c 0,0 -0.002,-38.387 -29.295,-57.58 0,0 15.152,-23.233 15.152,-43.437"
             style="fill:none;stroke:#000000;stroke-width:15;stroke-linecap:round;stroke-linejoin:round;stroke-miterlimit:10;stroke-dasharray:none;stroke-opacity:1"
             id="path8737" /></g><g
           id="g8739"
           transform="translate(106.4961,50.9365)"><path
             d="M 0,0 C -5.051,9.092 -17.173,17.173 -17.173,30.306"
             style="fill:none;stroke:#000000;stroke-width:15;stroke-linecap:round;stroke-linejoin:round;stroke-miterlimit:10;stroke-dasharray:none;stroke-opacity:1"
             id="path8741" /></g><g
           id="g8743"
           transform="translate(386.3105,130.7402)"><path
             d="m 0,0 -19.898,-37.23 c -7.028,-13.149 -20.726,-21.36 -35.636,-21.36 h -46.492 c -15.621,0 -28.285,12.663 -28.285,28.284 v 8.082"
             style="fill:none;stroke:#000000;stroke-width:15;stroke-linecap:round;stroke-linejoin:round;stroke-miterlimit:10;stroke-dasharray:none;stroke-opacity:1"
             id="path8745" /></g><g
           id="g8747"
           transform="translate(405.5039,123.6689)"><path
             d="M 0,0 C 0,0 -41.417,10.102 -48.487,46.467"
             style="fill:none;stroke:#000000;stroke-width:15;stroke-linecap:round;stroke-linejoin:round;stroke-miterlimit:10;stroke-dasharray:none;stroke-opacity:1"
             id="path8749" /></g><g
           id="g8751"
           transform="translate(330.7764,72.1504)"><path
             d="M 0,0 C 0,0 27.25,-26.265 27.25,-64.65"
             style="fill:none;stroke:#000000;stroke-width:15;stroke-linecap:round;stroke-linejoin:round;stroke-miterlimit:10;stroke-dasharray:none;stroke-opacity:1"
             id="path8753" /></g><g
           id="g8755"
           transform="translate(256,39.8252)"><path
             d="M 0,0 V -12.122 C 0,-23.28 9.045,-32.325 20.203,-32.325 H 46.36 c 6.419,0 12.457,3.051 16.265,8.219 l 8.086,10.974"
             style="fill:none;stroke:#000000;stroke-width:15;stroke-linecap:round;stroke-linejoin:round;stroke-miterlimit:10;stroke-dasharray:none;stroke-opacity:1"
             id="path8757" /></g><g
           id="g8759"
           transform="translate(376.209,108.5166)"><path
             d="m 0,0 c 0,0 0.002,-38.387 29.295,-57.58 0,0 -15.152,-23.233 -15.152,-43.437"
             style="fill:none;stroke:#000000;stroke-width:15;stroke-linecap:round;stroke-linejoin:round;stroke-miterlimit:10;stroke-dasharray:none;stroke-opacity:1"
             id="path8761" /></g><g
           id="g8763"
           transform="translate(405.5039,50.9365)"><path
             d="M 0,0 C 5.051,9.092 17.173,17.173 17.173,30.306"
             style="fill:none;stroke:#000000;stroke-width:15;stroke-linecap:round;stroke-linejoin:round;stroke-miterlimit:10;stroke-dasharray:none;stroke-opacity:1"
             id="path8765" /></g><g
           id="g8767"
           transform="translate(398.96,381.96)"><path
             d="m 0,0 c 7.62,-26.25 9.08,-46.27 9.08,-46.27 -4.47,11.18 -8.94,14.53 -8.94,14.53 0,-90.55 -24.6,-125.21 -24.6,-125.21 0,17.89 -15.65,27.95 -15.65,27.95 0,-36.89 -22.36,-58.13 -22.36,-58.13 0,14.53 -12.29,15.651 -12.29,15.651 0,-29.071 -27.95,-53.661 -27.95,-53.661 4.47,10.06 -3.36,17.88 -3.36,17.88 -14.53,-33.54 -36.89,-36.89 -36.89,-36.89 0,0 -22.36,3.35 -36.89,36.89 0,0 -7.83,-7.82 -3.36,-17.88 0,0 -27.95,24.59 -27.95,53.661 0,0 -12.29,-1.121 -12.29,-15.651 0,0 -22.36,21.24 -22.36,58.13 0,0 -15.65,-10.06 -15.65,-27.95 0,0 -24.6,34.66 -24.6,125.21 0,0 -4.47,-3.35 -8.94,-14.53 0,0 12.3,168.81 152.04,168.81 72.8,0 111.01,-45.81 130.9,-89.7"
             style="fill:none;stroke:#000000;stroke-width:15;stroke-linecap:round;stroke-linejoin:round;stroke-miterlimit:10;stroke-dasharray:none;stroke-opacity:1"
             id="path8769" /></g><g
           id="g8771"
           transform="translate(366.1074,344.8945)"><path
             d="m 0,0 c 0,-22.316 -18.09,-40.406 -40.406,-40.406 -22.316,0 -40.407,18.09 -40.407,40.406 0,22.315 18.091,40.406 40.407,40.406 C -18.09,40.406 0,22.315 0,0 Z"
             style="fill:none;stroke:#000000;stroke-width:15;stroke-linecap:round;stroke-linejoin:round;stroke-miterlimit:10;stroke-dasharray:none;stroke-opacity:1"
             id="path8773" /></g><g
           id="g8775"
           transform="translate(226.7051,344.8945)"><path
             d="m 0,0 c 0,-22.316 -18.091,-40.406 -40.406,-40.406 -22.317,0 -40.407,18.09 -40.407,40.406 0,22.315 18.09,40.406 40.407,40.406 C -18.091,40.406 0,22.315 0,0 Z"
             style="fill:none;stroke:#000000;stroke-width:15;stroke-linecap:round;stroke-linejoin:round;stroke-miterlimit:10;stroke-dasharray:none;stroke-opacity:1"
             id="path8777" /></g><g
           id="g8779"
           transform="translate(272.1631,391.3613)"><path
             d="m 0,0 c 0,0 8.081,31.315 47.478,31.315 39.395,0 77.846,11.783 97.985,29.295 23.233,20.203 59.599,52.529 86.874,52.529"
             style="fill:none;stroke:#000000;stroke-width:15;stroke-linecap:round;stroke-linejoin:round;stroke-miterlimit:10;stroke-dasharray:none;stroke-opacity:1"
             id="path8781" /></g><g
           id="g8783"
           transform="translate(239.8369,391.3613)"><path
             d="m 0,0 c 0,0 -8.081,31.315 -47.478,31.315 -39.395,0 -77.846,11.783 -97.985,29.295 -23.233,20.203 -59.599,52.529 -86.874,52.529"
             style="fill:none;stroke:#000000;stroke-width:15;stroke-linecap:round;stroke-linejoin:round;stroke-miterlimit:10;stroke-dasharray:none;stroke-opacity:1"
             id="path8785" /></g><g
           id="g8787"
           transform="translate(292.3662,264.0811)"><path
             d="m 0,0 12.122,9.092 c 0,0 7.07,-13.132 7.07,-29.295"
             style="fill:none;stroke:#000000;stroke-width:15;stroke-linecap:round;stroke-linejoin:round;stroke-miterlimit:10;stroke-dasharray:none;stroke-opacity:1"
             id="path8789" /></g><g
           id="g8791"
           transform="translate(219.6338,264.0811)"><path
             d="m 0,0 -12.122,9.092 c 0,0 -7.07,-13.132 -7.07,-29.295"
             style="fill:none;stroke:#000000;stroke-width:15;stroke-linecap:round;stroke-linejoin:round;stroke-miterlimit:10;stroke-dasharray:none;stroke-opacity:1"
             id="path8793" /></g></g></g></g></svg>
