<?xml version="1.0"?>
<svg xmlns="http://www.w3.org/2000/svg" viewBox="0 0 64 64" width="512" height="512"><g id="_22-werewolf" data-name="22-werewolf"><path d="M60.521,58.561a4.315,4.315,0,0,0-1.95-2.378l-3.4-1.943A4.306,4.306,0,0,1,53,50.5a4.306,4.306,0,0,0-2.171-3.74L46,44l-4,8L31,48l-1.925,1.444a4.115,4.115,0,0,0-1.566,4.1,4.119,4.119,0,0,1-1.465,4.021l-2.095,1.676a4.114,4.114,0,0,0-1.333,1.912L22,63H40l2-2,1-3,3,3,1,2H62Z" style="fill:#0b5449"/><path d="M28.044,61.565A4.116,4.116,0,0,0,29.52,57.6a4.2,4.2,0,0,1,1.555-4.158h0a4.444,4.444,0,0,1,4.186-.622l4.592,1.67a4.949,4.949,0,0,0,6.12-2.438h0a4.286,4.286,0,0,1,5.962-1.8l.894.511c.069.039.131.087.2.13A3.487,3.487,0,0,1,53,50.432a4.157,4.157,0,0,0-2.188-3.682L46,44l-4,8L31,48l-1.925,1.444A4.2,4.2,0,0,0,27.52,53.6a4.116,4.116,0,0,1-1.476,3.963l-2.095,1.676a4.106,4.106,0,0,0-1.333,1.912L22,63h4.25Z" style="fill:#083f37"/><path d="M33,5l.614-1.841a1.41,1.41,0,0,0-.706-1.7h0a1.409,1.409,0,0,0-1.626.264L30,3Z" style="fill:#ec6628"/><path d="M20,13H17l1.652-2.065h0A13.874,13.874,0,0,0,9.439,12.28L8,13l9,3Z" style="fill:#9f3a0b"/><path d="M60,24l-7,7H50l-1,4-3,2v7l-4,8-7.18-2.61L31,48l-2-4-7-2-4,4-5,3L6,54,2,52,1,43l1-5,3,7H7V41l2-2,.81,5.03,3-2-.07-.3A4.871,4.871,0,0,1,14,37l-1-1-.63-.95a5.931,5.931,0,0,1,1.89-8.4,14.283,14.283,0,0,0,4.51-4.31L19,22h1l2,2,1-2,3,4,1-2,3,4,1-4,2,2V21.05l.09-.01L35,22l-.21-1.07a9.848,9.848,0,0,1,5.09,3.89L42,28l7-2-2-3V19l3-2v4l5-3,1-5,2,2v4Z" style="fill:#9f3a0b"/><path d="M34.82,49.39,31,48l-2-4-7-2h0a3.28,3.28,0,0,1,3.922-3.216l4.147.83a3.276,3.276,0,0,1,2.5,2.272Z" style="fill:#772c08"/><path d="M42,28l-2.121-3.181a9.871,9.871,0,0,0-5.093-3.89L35,22l-1.912-.956L33,21.05v.96a9.864,9.864,0,0,1,4.879,3.809l.862,1.293a3.11,3.11,0,0,0,3.441,1.265h0Z" style="fill:#772c08"/><path d="M14.2,29.68a13.709,13.709,0,0,0,4.328-3.973L19,25h1l2,2h0a1.382,1.382,0,0,1,2.342-.211L26,29h0a1.382,1.382,0,0,1,2.342-.211L30,31l.408-1.632a1.382,1.382,0,0,1,2.318-.642L33,29V26l-2-2-1,4-3-4-1,2-3-4-1,2-2-2H19l-.308.462a15.242,15.242,0,0,1-4.582,4.275,5.93,5.93,0,0,0-2.542,6.515A5.948,5.948,0,0,1,14.2,29.68Z" style="fill:#772c08"/><polygon points="33 5 31 9 35 8 37 6 37 9 34 13 38 17 34 17 35 22 33 21 33 26 31 24 30 28 27 24 26 26 23 22 22 24 20 22 15 22 19 17 16 17 20 13 17 13 21 8 26 6 30 3 33 5" style="fill:#b24f28"/><path d="M18.8,22,22,18a1.242,1.242,0,0,1-.879-2.121L23,14a1.442,1.442,0,0,1-1.126-2.343A13.105,13.105,0,0,1,25.694,8.5a41.277,41.277,0,0,0,4.745-2.582l1.855-1.392L30,3,26,6,21,8l-4,5h3l-4,4h3l-4,5Z" style="fill:#853b1e"/><circle cx="50" cy="7" r="5" style="fill:#7245a0"/><path d="M47,8a4.958,4.958,0,0,1,6.149-4.855,4.986,4.986,0,1,0-4.3,8.71A4.969,4.969,0,0,1,47,8Z" style="fill:#563478"/><path d="M50,13a6,6,0,1,1,6-6A6.006,6.006,0,0,1,50,13ZM50,3a4,4,0,1,0,4,4A4,4,0,0,0,50,3Z"/><ellipse cx="51.921" cy="5.215" rx="0.64" ry="1.3" transform="translate(17.099 44.079) rotate(-53.875)" style="fill:#c7b5d9"/><path d="M29,33a1,1,0,0,0,0,2h5a1,1,0,0,0,.6-.2L38.333,32H41a1,1,0,0,0,0-2H38.618L36.9,26.553a1,1,0,0,0-1.79.894L36.732,30.7,33.667,33Z"/><path d="M26,11a1,1,0,0,0,.707-.293l1-1a1,1,0,0,0-1.414-1.414l-1,1A1,1,0,0,0,26,11Z"/><path d="M28.3,44.841l.528,1.057A1,1,0,1,0,30.62,45L29.9,43.553a1,1,0,0,0-.621-.515l-6.751-1.929-1.816-1.816a1,1,0,0,0-1.414,1.414L20.586,42,17.38,45.206l-4.961,2.981-6.51,4.649L2.934,51.349l-.923-8.3.339-1.69,1.731,4.04A1,1,0,0,0,5,46H7a1,1,0,0,0,1-1V41.414l.325-.325.5,3.1a1.024,1.024,0,0,0,.046.155.536.536,0,0,0,.017.057,1,1,0,0,0,.176.283c.017.019.035.035.053.053a1,1,0,0,0,.282.2l.006,0,.005,0h.006l2.175.97A.977.977,0,0,0,12,46a1,1,0,0,0,.408-1.913l-.528-.236,1.373-.916,3.055-.983a1,1,0,0,0-.614-1.9l-2.108.678a3.892,3.892,0,0,1,.958-2.831l3.7-.925a1,1,0,0,0-.484-1.94l-3.451.863-.53-.53L13.2,34.5A4.952,4.952,0,0,1,14.772,27.5,15.334,15.334,0,0,0,19.526,23h.06l1.707,1.707a.99.99,0,0,0,.867.28,1,1,0,0,0,.735-.54l.276-.552L25.2,26.6a.979.979,0,0,0,.89.4,1,1,0,0,0,.8-.549l.276-.552L29.2,28.6a1,1,0,0,0,.8.4,1.031,1.031,0,0,0,.2-.02,1,1,0,0,0,.772-.738l.572-2.286.751.751A1,1,0,0,0,34,26V22.618l.553.277a1.007,1.007,0,0,0,1.054-.1.991.991,0,0,0,.258-.312,8.93,8.93,0,0,1,3.183,2.891l2.12,3.181a1.008,1.008,0,0,0,1.106.407l7-2a1,1,0,0,0,.558-1.517L48,22.7V19.535l1-.667V21a1,1,0,0,0,1.515.857l5-3a.992.992,0,0,0,.465-.661l.634-3.168.386.386V19a1.015,1.015,0,0,0,.067.348l-3.514,1.757a1,1,0,0,0-.26.188l-2,2a1,1,0,1,0,1.414,1.414l1.886-1.885,3.215-1.608.12.3-2.483,1.655a1,1,0,0,0-.152.125l-2,2a1,1,0,1,0,1.414,1.414l1.93-1.93,2.05-1.366.139.348L52.586,30H50a1,1,0,0,0-.97.758l-.906,3.625-2.679,1.785A1,1,0,0,0,45,37v6.764l-2.289,4.578-.164-1.475,1.16-1.16a1,1,0,0,0-1.414-1.414l-.029.029-.117-1.055,1.56-1.56A1,1,0,0,0,44,41V40a1,1,0,0,0-2,0v.586l-.313.313-.739-2.215a1,1,0,1,0-1.9.632l.966,2.9.006.055-1.947.649-1.63-.815a1,1,0,0,0-.894,1.79l2,1A1,1,0,0,0,38,45a.983.983,0,0,0,.316-.052L40.25,44.3l.2,1.828-.046.046-1.407.7-1.553-.777a1,1,0,0,0-.894,1.79l2,1a1,1,0,0,0,.894,0l1.244-.622.253,2.279-9.6-3.491a.762.762,0,0,0-.094-.014.954.954,0,0,0-.212-.032.936.936,0,0,0-.176.009.968.968,0,0,0-.189.047,1,1,0,0,0-.181.086c-.029.018-.062.022-.09.043l-1.925,1.444a5.144,5.144,0,0,0-1.947,5.1,3.1,3.1,0,0,1-1.109,3.044l-1.032.826a1,1,0,1,0,1.25,1.561l1.032-.825a5.1,5.1,0,0,0,1.82-5,3.138,3.138,0,0,1,1.186-3.1l1.492-1.119,10.491,3.815a1,1,0,0,0,1.237-.492l4-8A1,1,0,0,0,47,44V37.535l2.555-1.7a1,1,0,0,0,.415-.59L50.781,32H53a1,1,0,0,0,.707-.293l7-7a1,1,0,0,0,.222-1.078L59,18.808V15a1,1,0,0,0-.293-.707l-2-2a1,1,0,0,0-1.687.511l-.914,4.566L51,19.233V17a1,1,0,0,0-1.555-.832l-3,2A1,1,0,0,0,46,19v4a1.006,1.006,0,0,0,.168.555l1.24,1.86-4.981,1.423-1.715-2.573a10.928,10.928,0,0,0-5.054-4.073L35.22,18H38a1,1,0,0,0,.707-1.707L35.32,12.906,37.8,9.6A1,1,0,0,0,38,9V6a1,1,0,0,0-1.707-.707l-1.8,1.8L32.867,7.5,33.9,5.447c.01-.02.009-.042.018-.062a.743.743,0,0,0,.035-.069l.615-1.842a2.408,2.408,0,0,0-3.988-2.463L29.342,2.244,25.506,5.121l-4.877,1.95a1.006,1.006,0,0,0-.41.3L18.233,9.857a14.848,14.848,0,0,0-9.241,1.529l-1.439.719a1,1,0,0,0,.131,1.843l7.5,2.5A.99.99,0,0,0,16,18h.919l-2.7,3.375A1,1,0,0,0,15,23h2.02a13.3,13.3,0,0,1-3.277,2.788,6.952,6.952,0,0,0-2.207,9.818l.632.949a1,1,0,0,0,.125.152l.353.354a5.913,5.913,0,0,0-.97,4.522l-1.123.748L9.987,38.84a1,1,0,0,0-1.694-.547l-2,2A1,1,0,0,0,6,41v3H5.659l-2.74-6.394a.984.984,0,0,0-1.023-.6,1,1,0,0,0-.876.8l-1,5a.982.982,0,0,0-.014.306l1,9a1,1,0,0,0,.547.785l4,2A1.008,1.008,0,0,0,6,55a.988.988,0,0,0,.581-.187l6.934-4.956,5-3a.993.993,0,0,0,.192-.15l3.584-3.584ZM32.46,2.349a.409.409,0,0,1,.206.493l-.2.6-.9-.6.419-.42A.407.407,0,0,1,32.46,2.349ZM21.616,8.83l4.755-1.9A1.013,1.013,0,0,0,26.6,6.8l3.434-2.575,1.677,1.118-1.606,3.21A1,1,0,0,0,31.242,9.97l4-1a1,1,0,0,0,.465-.263L36,8.414v.253L33.2,12.4a1,1,0,0,0,.093,1.307L35.586,16H34a1,1,0,0,0-.98,1.2l.6,2.995-.171-.086A1,1,0,0,0,32,21v2.586l-.293-.293a1,1,0,0,0-1.677.465l-.491,1.961L27.8,23.4A1,1,0,0,0,27,23c-.029,0-.06,0-.09,0a1,1,0,0,0-.8.549l-.276.552L23.8,21.4a.984.984,0,0,0-.89-.4,1,1,0,0,0-.8.549l-.379.759-1.019-1.019A1,1,0,0,0,20,21H17.081l2.7-3.375A1,1,0,0,0,19,16h-.586l2.293-2.293A1,1,0,0,0,20,12h-.919ZM16.762,11.7l-.543.679A1,1,0,0,0,17,14h.586l-.856.856-6.1-2.032A12.862,12.862,0,0,1,16.762,11.7Z"/><path d="M62.948,62.684,61.47,58.245a5.3,5.3,0,0,0-2.4-2.93l-3.4-1.943A3.314,3.314,0,0,1,54,50.5a5.316,5.316,0,0,0-2.675-4.608l-2.289-1.309a1,1,0,1,0-.992,1.736l2.289,1.309A3.314,3.314,0,0,1,52,50.5a5.316,5.316,0,0,0,2.675,4.608l3.4,1.944a3.3,3.3,0,0,1,1.5,1.826L60.612,62H47.618L46.9,60.553a1,1,0,0,0-.188-.26l-3-3a1,1,0,0,0-1.655.391l-.926,2.776L39.586,62h-16.2l.177-.53a1,1,0,1,0-1.9-.633l-.614,1.847A1,1,0,0,0,22,64H40a1,1,0,0,0,.707-.293l2-2a1,1,0,0,0,.241-.391l.49-1.464,1.74,1.741.927,1.854A1,1,0,0,0,47,64H62a1,1,0,0,0,.948-1.316Z"/></g></svg>
